<?xml version="1.0" standalone="no"?>
<!DOCTYPE svg PUBLIC "-//W3C//DTD SVG 1.1//EN" "http://www.w3.org/Graphics/SVG/1.1/DTD/svg11.dtd" >
<svg xmlns="http://www.w3.org/2000/svg">
<metadata></metadata>
<defs>
<font id="avantgarde_lt_extralightIt" horiz-adv-x="1136" >
<font-face units-per-em="2048" ascent="1638" descent="-410" />
<missing-glyph horiz-adv-x="567" />
<glyph horiz-adv-x="0" />
<glyph unicode="&#xd;" horiz-adv-x="567" />
<glyph unicode=" "  horiz-adv-x="567" />
<glyph unicode="&#x09;" horiz-adv-x="567" />
<glyph unicode="&#xa0;" horiz-adv-x="567" />
<glyph unicode="!" horiz-adv-x="530" d="M236 0l30 166h62l-31 -166h-61zM299 340l217 1176h62l-218 -1176h-61z" />
<glyph unicode="&#x22;" horiz-adv-x="681" d="M360 909l113 607h62l-113 -607h-62zM596 909l113 607h61l-113 -607h-61z" />
<glyph unicode="#" d="M139 555l15 47h309l92 281h-309l16 47h309l148 452h49l-147 -452h292l148 452h49l-147 -452h309l-15 -47h-311l-92 -281h311l-14 -47h-309l-160 -492h-49l158 492h-293l-158 -492h-51l160 492h-310zM512 602h293l94 281h-293z" />
<glyph unicode="$" d="M256 465h61q-8 -88 14.5 -149.5t64.5 -101.5t97.5 -58.5t110.5 -18.5q70 0 134.5 25.5t116.5 69.5t89 103.5t49 127.5q16 90 -5 147.5t-67.5 94t-109.5 59t-129 43.5q-43 12 -91 33.5t-87 60.5t-58.5 98.5t-3.5 145.5q12 70 46 129t84.5 105t113 76t135.5 40l31 164h61 l-30 -164q84 -10 139 -44t86 -80t40 -101.5t3 -106.5h-61q6 80 -17.5 132.5t-61.5 85t-83 46t-82 13.5q-53 0 -107.5 -20.5t-102.5 -58.5t-84 -93.5t-48 -122.5q-14 -78 3 -128t58 -82t97.5 -52.5t117.5 -38.5q37 -12 93.5 -32.5t102.5 -62.5t71.5 -112t7.5 -176 q-14 -70 -53 -136.5t-95.5 -119.5t-129 -87t-156.5 -40l-37 -195h-62l37 195q-76 6 -137.5 37.5t-101 82t-57 119t-7.5 148.5z" />
<glyph unicode="%" horiz-adv-x="1472" d="M233 0l1217 1516h66l-1217 -1516h-66zM268 1208q14 72 50 133.5t89.5 105.5t120 69.5t138.5 25.5t128 -25.5t92 -69.5t50 -105.5t0 -133.5q-12 -72 -49 -133t-89.5 -106t-119 -70t-137.5 -25q-72 0 -128.5 25t-93 70t-50 106t-1.5 133zM326 1094.5q10 -52.5 39.5 -89 t76.5 -58t109 -21.5q61 0 116.5 21.5t97.5 58t73 89t41 113.5q12 61 0.5 113.5t-40 89.5t-75.5 58.5t-109 21.5q-61 0 -116.5 -21.5t-98.5 -58.5t-72.5 -89t-41.5 -114q-10 -61 0 -113.5zM816 174q-13 61 1 133q12 72 48 133.5t89.5 105.5t120 69.5t137.5 25.5 q72 0 128.5 -25.5t92 -69.5t50 -105.5t2.5 -133.5q-14 -72 -51 -133t-89.5 -106t-118 -70t-136.5 -25q-72 0 -129.5 25t-94.5 70t-50 106zM873.5 193.5q11.5 -52.5 40 -89t75.5 -58t109 -21.5q61 0 116.5 21.5t98.5 58t72.5 89t41.5 113.5q10 61 0 113.5t-39.5 89.5 t-76.5 58.5t-109 21.5q-61 0 -116.5 -21.5t-97.5 -58.5t-72.5 -89t-41.5 -114q-12 -61 -0.5 -113.5z" />
<glyph unicode="&#x26;" horiz-adv-x="1476" d="M186 397q18 98 72.5 175t124.5 135.5t149.5 98.5t147.5 64l-64 84q-25 33 -42 63t-29.5 60.5t-14.5 65.5t2 78q12 63 47 121.5t86.5 102.5t115 70.5t132.5 26.5q70 0 126.5 -26.5t94 -71.5t52 -105.5t2.5 -126.5q-14 -78 -53 -133t-95.5 -95t-124 -70.5t-141.5 -61.5 l305 -385l348 489h68l-379 -534l320 -404l-52 -41l-307 388l-67 -97q-35 -49 -77 -101t-95.5 -95t-126 -71t-168.5 -28q-102 0 -176 37t-119 96.5t-60.5 136t-1.5 154.5zM248 395q-14 -70 1 -135t53 -116.5t102.5 -82t154.5 -30.5q57 0 107.5 12t99.5 43t97 82t100 127 l75 115l-325 417q-129 -53 -214 -106t-136.5 -107.5t-78 -109.5t-36.5 -109zM596 1229q-14 -76 10.5 -130.5t52.5 -92.5l82 -109q92 37 159 67.5t113 65.5t73.5 79t39.5 105q10 51 -1 99.5t-39.5 86.5t-74.5 60.5t-108 24.5q-63 -2 -116.5 -26.5t-93.5 -61.5t-64.5 -81 t-32.5 -87z" />
<glyph unicode="'" horiz-adv-x="454" d="M365 909l112 607h62l-113 -607h-61z" />
<glyph unicode="(" horiz-adv-x="870" d="M303 494q29 162 101.5 317.5t176 292.5t234.5 248.5t277 189.5l-15 -72q-121 -68 -235.5 -169t-209.5 -227t-165 -273.5t-98 -306.5q-31 -160 -16.5 -308.5t63.5 -274.5t125.5 -227.5t173.5 -168.5l-15 -76q-53 41 -115.5 94t-123.5 143q-111 164 -156 374t-2 444z" />
<glyph unicode=")" horiz-adv-x="870" d="M-39 -561l14 69q121 68 236 170.5t210 228.5t164.5 273.5t98.5 306.5q31 160 15.5 307.5t-63.5 274.5t-125 228.5t-173 168.5l14 76q53 -41 115.5 -94t124.5 -143q113 -166 157 -375t1 -443q-31 -164 -104 -319.5t-176 -291.5t-233.5 -248.5t-275.5 -188.5z" />
<glyph unicode="*" horiz-adv-x="1173" d="M510 1087l244 127l-197 123l41 54l193 -127l47 252h59l-47 -252l242 127l18 -52l-238 -125l195 -129l-37 -49l-199 125l-47 -252h-59l47 254l-240 -127z" />
<glyph unicode="+" horiz-adv-x="1228" d="M193 483l10 58h483l90 485h58l-91 -485h484l-10 -58h-484l-90 -483h-57l90 483h-483z" />
<glyph unicode="," horiz-adv-x="567" d="M98 -147l187 315h65l-186 -315h-66z" />
<glyph unicode="-" horiz-adv-x="544" d="M100 537l11 59h544l-10 -59h-545z" />
<glyph unicode="." horiz-adv-x="567" d="M254 0l31 166h61l-31 -166h-61z" />
<glyph unicode="/" horiz-adv-x="1060" d="M98 -205l1039 1721h67l-1038 -1721h-68z" />
<glyph unicode="0" d="M164 455l108 587q20 111 63.5 190t98.5 134t115.5 90t117 54.5t104.5 25.5t77 6q100 0 183 -34.5t139.5 -97t79 -152t1.5 -197.5l-112 -606q-18 -96 -58.5 -170t-93.5 -127.5t-112.5 -89t-117 -57t-107.5 -30t-83 -8.5q-66 0 -146.5 23.5t-146 79t-100.5 147.5t-10 232z M225 455q-18 -102 2.5 -182t70.5 -134.5t122 -82t153 -27.5q55 0 132 20.5t153 69.5t136.5 131t82.5 205l113 606q14 76 3 151.5t-53 137t-116 99.5t-186 38q-82 0 -163 -27.5t-149.5 -83t-119 -137.5t-70.5 -190z" />
<glyph unicode="1" d="M498 1460l10 56h397l-280 -1516h-62l271 1460h-336z" />
<glyph unicode="2" d="M117 0l10 55l774 666q117 100 183.5 185t86.5 181q16 88 2 162t-57 126t-107.5 82t-146.5 30q-74 0 -147.5 -26.5t-136 -81t-110.5 -135.5t-71 -191h-61q27 131 86 223t135 151.5t161 87t163 27.5q94 0 167.5 -34.5t122 -97t65.5 -147.5t-5 -186q-14 -57 -41 -106 t-63.5 -97.5t-85 -96.5t-107.5 -101l-725 -621h833l-10 -55h-915z" />
<glyph unicode="3" d="M162 440h61q-18 -109 6.5 -185.5t73.5 -127.5t115.5 -74.5t134.5 -23.5q92 0 171 31.5t141.5 87t104.5 129t56 155.5q12 63 2 135t-51 132.5t-116 100.5t-191 40h-82l10 55h80q115 0 188.5 38t116.5 88t61.5 99t22.5 72q12 63 0 117.5t-42 94.5t-78 61.5t-111 21.5 q-68 0 -127.5 -23.5t-104.5 -62.5t-76.5 -92.5t-48.5 -110.5h-61q23 86 67.5 150.5t103 107.5t124 64.5t127.5 21.5q68 0 126 -22.5t101 -66.5t59.5 -110.5t1.5 -152.5q-8 -43 -29.5 -91t-55 -92t-81 -80t-106.5 -55v-4q88 -35 140.5 -89t76 -113.5t24.5 -119t-7 -102.5 q-18 -106 -69.5 -193t-124.5 -148.5t-165 -95.5t-194 -34q-86 0 -163 32t-130.5 91.5t-78 146.5t-3.5 197z" />
<glyph unicode="4" d="M90 295l10 53l985 1168h84l-215 -1166h154l-10 -55h-154l-55 -295h-62l56 295h-793zM172 350h721l201 1092h-4z" />
<glyph unicode="5" d="M125 444h61q-6 -102 23 -179t81 -130t121.5 -79.5t143.5 -26.5q88 0 175 35.5t160 98t125 146.5t68 178q18 98 -3 183.5t-70 148t-123 98t-162 35.5q-25 0 -63.5 -4t-88 -22.5t-107.5 -53t-120 -96.5l-49 15l272 725h680l-10 -56h-631l-217 -571q25 16 59.5 36.5t77.5 39 t95.5 31t115.5 12.5q111 0 195 -43t138 -114t73.5 -164t1.5 -193q-20 -111 -80.5 -206t-142.5 -165t-181.5 -110t-199.5 -40q-74 0 -152 28t-140.5 85t-99 146.5t-26.5 211.5z" />
<glyph unicode="6" d="M151.5 302q-12.5 87 2.5 167q25 131 83 221t117 158l582 668h70l-514 -590l4 -2q45 29 114.5 53t149.5 24q98 0 181 -36.5t138.5 -104t78 -162t-0.5 -206.5q-18 -102 -72.5 -196.5t-134.5 -166.5t-179 -114t-208 -42q-131 0 -217 47.5t-134 121t-60.5 160.5zM215 305 q14 -80 59 -141.5t120 -98t177 -36.5q98 0 185.5 36.5t158 99t117.5 145.5t64 175q20 117 -3.5 204t-75.5 143.5t-122 85t-143 28.5q-66 0 -149 -25.5t-160.5 -82t-140 -146.5t-85.5 -219q-16 -88 -2 -168z" />
<glyph unicode="7" d="M244 0l944 1460h-739l10 56h805l-11 -56l-946 -1460h-63z" />
<glyph unicode="8" d="M186 428q33 154 141.5 269.5t256.5 160.5q-92 41 -136 131.5t-26 196.5q14 72 54 136t98.5 113.5t131 78t148.5 28.5t137.5 -27.5t101.5 -75.5t56 -113.5t2 -139.5q-18 -106 -97 -196.5t-184 -131.5q63 -23 113.5 -63.5t82.5 -96t43 -125t-1 -145.5q-20 -96 -72.5 -179 t-125 -144.5t-163 -96.5t-184.5 -35q-96 0 -173 35t-127 96.5t-71.5 144.5t-5.5 179zM248 428q-16 -84 1 -156.5t61 -127t111.5 -85t151.5 -30.5t162 30.5t142.5 85t108.5 127t61 156.5q14 84 -3.5 156.5t-61.5 127t-110.5 85t-150.5 30.5t-163 -30.5t-143.5 -85 t-108.5 -127t-58 -156.5zM483 1184q-12 -63 2.5 -117.5t47 -95.5t84 -64.5t114.5 -23.5t122.5 23.5t109 64.5t82 95t45.5 118q12 63 -1.5 118.5t-47 96.5t-84 64.5t-113.5 23.5t-124 -23.5t-109 -64.5t-82 -96.5t-46 -118.5z" />
<glyph unicode="9" d="M260 1024q18 102 72.5 196.5t134.5 166t180.5 113.5t208.5 42q131 0 216 -47t133 -121t60.5 -161t-1.5 -166q-12 -66 -34 -121.5t-49.5 -101.5t-58 -85t-59.5 -71l-582 -668h-69l514 590l-2 2q-47 -29 -117 -53q-35 -10 -71 -17.5t-77 -7.5q-98 0 -182 37t-139 104.5 t-77.5 160.5t-0.5 208zM322 1030q-20 -117 3 -204t75.5 -143t123 -85t144.5 -29q66 0 147.5 26t159.5 82t140 146t85 219q16 88 2 168t-59 141.5t-119 98.5t-176 37q-98 0 -186.5 -37t-158 -99.5t-116.5 -145.5t-65 -175z" />
<glyph unicode=":" horiz-adv-x="567" d="M254 0l31 166h61l-31 -166h-61zM424 920l31 165h61l-31 -165h-61z" />
<glyph unicode=";" horiz-adv-x="567" d="M98 -147l187 315h65l-186 -315h-66zM422 920l31 165h61l-31 -165h-61z" />
<glyph unicode="&#x3c;" horiz-adv-x="1228" d="M193 481l10 66l1114 481l-12 -63l-1039 -451l873 -451l-13 -63z" />
<glyph unicode="=" horiz-adv-x="1228" d="M156 285l10 57h1024l-10 -57h-1024zM229 682l11 57h1024l-11 -57h-1024z" />
<glyph unicode="&#x3e;" horiz-adv-x="1228" d="M102 0l13 63l1040 451l-874 451l12 63l934 -481l-10 -66z" />
<glyph unicode="?" horiz-adv-x="1097" d="M289 1112q29 123 91 205t137 132t153 70.5t137 20.5q86 0 158.5 -30.5t122 -88t71 -136.5t2.5 -175q-10 -61 -42 -114.5t-76 -101.5t-95 -92t-102 -85q-70 -57 -111 -110.5t-64.5 -101.5t-32.5 -89t-15 -76h-62q10 49 23.5 99t41 103.5t75 111t126.5 120.5q47 41 91.5 78 t80 76t62 83t41.5 103q12 74 -3.5 139.5t-55 115.5t-102 79t-142.5 29q-59 0 -129 -19.5t-133.5 -62.5t-113.5 -113t-73 -170h-61zM498 0l30 166h60l-31 -166h-59z" />
<glyph unicode="@" horiz-adv-x="1630" d="M223 748q29 164 117 309t213 252.5t281.5 170t322.5 62.5q125 0 242 -41t203 -121t126.5 -199.5t12.5 -277.5q-29 -152 -103.5 -260t-164 -178t-177.5 -102.5t-143 -32.5q-12 0 -40 3t-51.5 18.5t-37.5 46t-4 85.5h-4q-18 -23 -45 -47t-63 -46.5t-80 -37t-99 -14.5 q-27 0 -63.5 10t-65.5 39t-44 81t1 136q18 106 73.5 210t131.5 184.5t164 131t172 50.5q61 0 97 -18.5t56.5 -45t25.5 -56.5t5 -50h4l74 137h57l-301 -557q-2 -6 -20.5 -40t-24.5 -65q-8 -37 0 -57t24.5 -30.5t36 -12.5t33.5 -2q55 0 134 33t156 97.5t140.5 161.5t87.5 226 q27 150 -11 260.5t-116.5 183t-186 108.5t-218.5 36q-147 0 -289.5 -53.5t-262.5 -151.5t-204 -234.5t-114 -301.5q-31 -166 3.5 -299.5t116.5 -226.5t201 -144t256 -51q82 0 176 20.5t187.5 63.5t178.5 110.5t152 161.5h52q-68 -111 -162 -188.5t-196.5 -127t-206 -72 t-187.5 -22.5q-164 0 -293 60.5t-215 165t-118.5 246t-2.5 303.5zM610 497.5q8 -40.5 30 -64t49.5 -33t51.5 -9.5q76 0 135.5 31t102.5 74t71.5 90t45.5 78l86 149q25 49 37 73.5t20 59.5q6 51 -6 86t-37 56.5t-53.5 29.5t-50.5 8q-63 0 -138 -41t-144 -111.5t-123 -165.5 t-73 -204q-12 -66 -4 -106.5z" />
<glyph unicode="A" horiz-adv-x="1406" d="M14 0l930 1516h80l369 -1516h-66l-129 528h-792l-326 -528h-66zM442 584h740l-209 874z" />
<glyph unicode="B" horiz-adv-x="1105" d="M158 0l280 1516h322q98 0 157.5 -14.5t98.5 -41.5q47 -29 74.5 -66.5t40 -81.5t12.5 -89t-8 -88q-4 -16 -14.5 -56.5t-39 -89.5t-81 -99t-136.5 -85l-2 -4q100 -31 150 -87q50 -55 70 -115q18 -54 18 -104v-11q-2 -54 -6 -81q-29 -141 -110 -231t-200 -137 q-106 -35 -247 -35h-379zM229 55h320q59 0 115.5 8.5t107.5 24.5q92 37 163 112.5t97 202.5q7 39 7 74q-1 70 -27 126q-40 85 -125 126q-29 12 -53.5 20.5t-54 11.5t-64.5 4t-80 1h-275zM371 821h274q68 0 123 8.5t100 30.5q104 53 147.5 128t57.5 155q7 39 7 73 q0 57 -20 102q-34 71 -89 97q-29 18 -76 30.5t-145 14.5h-261z" />
<glyph unicode="C" horiz-adv-x="1609" d="M225 758q31 170 119 314.5t215 248.5t280.5 162.5t317.5 58.5q121 0 218.5 -32.5t171 -85t124.5 -118t82 -128.5h-72q-18 31 -55 82t-102.5 101t-158.5 88t-218 38q-152 0 -294 -55.5t-259 -152.5t-198 -230.5t-109 -290.5q-15 -78 -15 -151t16 -140 q32 -133 112.5 -230.5t202.5 -152.5t274 -55q133 0 242.5 38.5t192.5 89t137 100.5t75 73h69q-51 -66 -126.5 -129.5t-169 -114.5t-203 -82t-228.5 -31q-164 0 -296 58.5t-220 162.5q-88 106 -122 250q-18 75 -18 156q0 76 15 158z" />
<glyph unicode="D" horiz-adv-x="1435" d="M158 0l280 1516h428q178 0 311.5 -51.5t212.5 -148.5q80 -96 107 -238q12 -64 12 -135q0 -87 -18 -185q-35 -178 -113 -319.5t-194.5 -239t-268 -148.5t-329.5 -51h-428zM229 55h367q164 0 303 47.5t246.5 137.5t179.5 220t102 294q18 96 18 181q1 61 -9 116 q-22 131 -96 222t-196 139t-288 48h-367z" />
<glyph unicode="E" horiz-adv-x="1120" d="M158 0l280 1516h832l-10 -56h-771l-122 -669h770l-11 -56h-770l-127 -680h770l-10 -55h-831z" />
<glyph unicode="F" horiz-adv-x="976" d="M158 0l280 1516h744l-11 -56h-682l-122 -669h682l-11 -56h-682l-137 -735h-61z" />
<glyph unicode="G" horiz-adv-x="1746" d="M225 758q31 170 119 314.5t215 248.5t280.5 162.5t317.5 58.5q104 0 200.5 -24.5t178.5 -71.5t143.5 -114.5t98.5 -151.5h-74q-88 150 -229.5 228.5t-327.5 78.5q-152 0 -294 -55.5t-259 -152.5t-198 -230.5t-109 -290.5q-15 -78 -15 -151t16 -140q31 -133 112 -230.5 t203 -152.5t274 -55q143 0 276 47t243.5 125t192.5 178t123 207h-903l10 55h977q-41 -137 -132 -259t-216 -212t-273.5 -143.5t-308.5 -53.5q-164 0 -296 58.5t-220 163t-122 249.5q-18 74 -18 156q0 76 15 158z" />
<glyph unicode="H" horiz-adv-x="1286" d="M158 0l280 1516h62l-133 -725h847l134 725h61l-281 -1516h-61l137 735h-848l-137 -735h-61z" />
<glyph unicode="I" horiz-adv-x="378" d="M158 0l280 1516h62l-281 -1516h-61z" />
<glyph unicode="J" horiz-adv-x="927" d="M66 289h67q4 -88 37 -139.5t76 -78t86 -34.5t67 -8q119 4 201 59t117 119q29 51 45 105.5t29 121.5l200 1082h62l-201 -1082q-10 -53 -26.5 -118.5t-55.5 -131.5q-23 -35 -54.5 -69.5t-74.5 -63.5q-63 -41 -130 -59.5t-126 -18.5q-63 0 -121.5 19.5t-102.5 59.5 t-69.5 99.5t-25.5 137.5z" />
<glyph unicode="K" horiz-adv-x="1097" d="M186 0l281 1516h61l-190 -1024h4l963 1024h73l-702 -748l422 -768h-74l-397 719l-305 -324l-74 -395h-62z" />
<glyph unicode="L" horiz-adv-x="866" d="M158 0l280 1516h62l-271 -1461h641l-10 -55h-702z" />
<glyph unicode="M" horiz-adv-x="1910" d="M158 0l280 1516h99l438 -1418l960 1418h97l-281 -1516h-61l270 1454h-2h2h-4l-983 -1454h-35l-444 1454h-5l-270 -1454h-61z" />
<glyph unicode="N" horiz-adv-x="1511" d="M158 0l280 1516h92l773 -1434h4l266 1434h61l-280 -1516h-78l-782 1454h-5l-270 -1454h-61z" />
<glyph unicode="O" horiz-adv-x="1742" d="M225 758q31 170 119 314.5t215 248.5t280.5 162.5t317.5 58.5q162 0 294 -58.5t220 -162.5q88 -105 123 -249q19 -77 19 -160q0 -74 -15 -154q-33 -170 -121 -314.5t-215 -249t-280.5 -163t-315.5 -58.5q-164 0 -296 58.5t-220 162.5q-88 106 -123 250q-18 74 -18 155 q0 77 16 159zM287 758q-15 -78 -15 -151t16 -140q32 -133 112.5 -230.5t202.5 -152.5t274 -55q150 0 292 55t257.5 152.5t197.5 230.5t113 291q14 74 14 142q0 78 -18 149q-33 133 -113 230t-202 152.5t-271 55.5q-152 0 -294 -55.5t-259 -152.5t-197.5 -230t-109.5 -291z " />
<glyph unicode="P" horiz-adv-x="1046" d="M137 0l281 1516h352q68 0 120 -4.5t96 -13.5t79 -27.5t68 -45.5q59 -49 85 -142q14 -52 13 -108q0 -44 -8 -90q-18 -104 -79 -197t-138 -143q-41 -29 -84 -46t-90.5 -26t-101.5 -13.5t-120 -4.5h-291l-120 -655h-62zM330 711h293q63 0 114 4t93 14t79 25.5t74 40.5 q63 41 112.5 121.5t65.5 166.5q7 41 7 80q0 47 -10 91q-19 81 -66 122q-29 25 -60 40.5t-69.5 25.5t-88 14t-112.5 4h-293z" />
<glyph unicode="Q" horiz-adv-x="1806" d="M256 460q-16 71 -16 145.5t16 152.5q31 170 119 314.5t215 248.5t280.5 162.5t317.5 58.5q162 0 294 -58.5t220 -162.5t123 -249q19 -76 19 -160q0 -74 -15 -154q-25 -125 -71 -221.5t-101 -169t-109.5 -122.5t-91.5 -81q39 -25 76 -44.5t78 -34.5t92 -27.5t117 -20.5 l-11 -64q-88 12 -148.5 26.5t-103.5 33t-79.5 41t-79.5 51.5q-33 -20 -81 -46t-111.5 -49.5t-139.5 -40t-162 -16.5q-182 0 -317 64.5t-217 172t-113 250.5zM302 602q3 -61 11 -98q63 20 151.5 40.5t211.5 20.5q125 0 233.5 -28.5t196.5 -81.5q23 -12 42 -25.5t50 -40.5 t81 -71t134 -117q145 109 234.5 252t119.5 305q14 75 14 143q0 78 -17 148q-33 133 -113 230t-202 152.5t-271 55.5q-152 0 -294.5 -55.5t-259 -152.5t-197.5 -230.5t-110 -290.5q-15 -82 -15 -138v-18zM326 444q43 -139 119.5 -222t161.5 -126t169 -55t139 -12 q70 0 135.5 12t123 32.5t104.5 44t80 46.5q-12 10 -48 41t-73 62.5t-65 58.5l-29 26q-109 80 -226.5 119t-259.5 39q-111 0 -188 -21.5t-143 -44.5z" />
<glyph unicode="R" horiz-adv-x="1134" d="M137 0l281 1516h346q88 0 150.5 -4.5t108.5 -11.5t76.5 -19.5t55.5 -28.5q41 -23 75 -63.5t52 -94.5q18 -56 24 -118q2 -21 3 -41q0 -42 -9 -86q-12 -72 -49 -154t-103.5 -153.5t-162.5 -120t-219 -48.5l-59 -2l301 -571h-78l-328 627h94q53 0 98.5 3t87.5 13t84 29.5 t83 50.5q86 76 130 154.5t60 169.5q7 38 7 76q0 60 -18 120q-28 98 -104 156q-31 23 -67.5 35t-81.5 18t-99.5 7t-121.5 1h-285l-270 -1460h-62z" />
<glyph unicode="S" horiz-adv-x="1060" d="M164 383h61q-1 -18 -1 -34q0 -87 26 -145q31 -70 79 -108.5t105.5 -52.5t100.5 -14q72 0 144.5 25.5t135 72.5t107.5 113.5t59 148.5q8 44 8 81q1 51 -15 90q-28 67 -80 107t-114.5 61.5t-115.5 35.5q-47 12 -112 33.5t-119 62.5q-54 42 -85 110q-18 41 -18 95q0 37 8 80 q14 94 60 167.5t114 124t147.5 77t161.5 26.5q68 0 129.5 -20.5t106.5 -63.5q45 -44 71 -110q21 -54 20 -124q0 -17 -1 -34h-62v15q0 38 -8 82q-10 52 -38.5 96t-84 74t-147.5 30q-72 0 -139.5 -23.5t-123 -66.5t-93 -104.5t-50.5 -135.5q-8 -39 -7 -72q0 -43 12 -77 q24 -58 74 -97t120 -62.5t143 -43.5q16 -6 50 -14.5t72 -27t77 -46t66.5 -70.5t39.5 -105q5 -27 4 -57q0 -40 -8 -86q-18 -94 -69 -172t-123 -134t-157 -87t-169 -31q-68 0 -138.5 23.5t-123.5 73.5q-52 52 -82 128q-21 54 -21 125q0 28 3 60z" />
<glyph unicode="T" horiz-adv-x="907" d="M281 1460l10 56h885l-11 -56h-411l-271 -1460h-61l270 1460h-411z" />
<glyph unicode="U" horiz-adv-x="1239" d="M234 294q-3 25 -3 50q-1 36 5 74q10 62 18 114l182 984h62l-183 -984q-10 -55 -17 -102q-6 -41 -6 -79v-11q1 -43 12 -85t38 -87q37 -66 116 -102.5t171 -36.5q86 0 177 36.5t152 102.5q43 45 71 87t45.5 85t26.5 90t19 102l183 984h61l-182 -984q-8 -51 -23.5 -113.5 t-44.5 -125t-77 -121.5t-124 -106q-68 -43 -144.5 -68t-154.5 -25t-145.5 25t-118.5 68q-59 47 -84.5 106.5t-31.5 121.5z" />
<glyph unicode="V" horiz-adv-x="1363" d="M295 1516h70l335 -1414l863 1414h67l-928 -1516h-43z" />
<glyph unicode="W" horiz-adv-x="1818" d="M305 1516h66l141 -1432h4l651 1432h43l127 -1432h4l670 1432h64l-715 -1516h-80l-119 1354h-4l-618 -1354h-82z" />
<glyph unicode="X" d="M16 0l660 770l-361 746h74l330 -689l588 689h71l-635 -746l377 -770h-71l-351 717l-614 -717h-68z" />
<glyph unicode="Y" horiz-adv-x="1134" d="M311 1516h68l299 -924l637 924h69l-690 -994l-96 -522h-61l96 522z" />
<glyph unicode="Z" horiz-adv-x="1021" d="M41 0l1096 1460h-854l10 56h954l-1095 -1461h868l-10 -55h-969z" />
<glyph unicode="[" horiz-adv-x="870" d="M358 -31l195 1045q6 37 23.5 101.5t62.5 139t129 150.5t223 137l-14 -74q-164 -74 -248 -190.5t-111 -263.5l-194 -1045q-6 -39 -11 -96t10 -120.5t59 -125t132 -110.5l-12 -74q-166 86 -221 216t-23 310z" />
<glyph unicode="\" horiz-adv-x="1060" d="M418 1516h67l400 -1721h-68z" />
<glyph unicode="]" horiz-adv-x="870" d="M63 -557l13 74q164 74 248 189.5t110 262.5l195 1045q6 39 11 97t-10.5 121.5t-59.5 125t-132 110.5l15 74q164 -88 219 -218t22 -310l-194 -1045q-6 -37 -23.5 -101.5t-62.5 -138t-129 -149.5t-222 -137z" />
<glyph unicode="^" horiz-adv-x="1228" d="M373 768l489 748h66l215 -748h-66l-194 680l-445 -680h-65z" />
<glyph unicode="_" horiz-adv-x="1024" d="M-47 -256l18 102h1024l-18 -102h-1024z" />
<glyph unicode="`" d="M578 1522l36 47l433 -283l-35 -47z" />
<glyph unicode="a" horiz-adv-x="1380" d="M184 543q20 113 80 215t149 181t203.5 126t245.5 47q98 0 177 -27.5t135.5 -70.5t90 -97.5t44.5 -107.5h4l51 276h57l-200 -1085h-58l49 270h-4q-96 -139 -239.5 -218t-317.5 -79q-133 0 -231 48.5t-156 126.5q-60 80 -80 182q-10 52 -10 105t10 108zM241 358 q15 -92 66 -165.5t139.5 -119.5t219.5 -46q113 0 214 41t182 111.5t135 164.5t73 199q9 52 9 101q1 55 -11 105q-22 95 -77.5 163.5t-142.5 107.5t-196 39q-106 0 -206.5 -38t-182.5 -105.5t-141.5 -163t-79.5 -209.5q-8 -47 -8 -95q0 -45 7 -90z" />
<glyph unicode="b" horiz-adv-x="1380" d="M160 0l280 1516h58l-131 -707h4q41 59 95 113.5t126 95.5t155.5 66.5t184.5 27.5q131 0 227 -47t156.5 -126t80.5 -181q10 -52 11 -107q0 -53 -10 -108q-20 -111 -77.5 -213.5t-147 -181t-204 -127t-247.5 -48.5q-174 0 -289 79t-162 218h-4l-49 -270h-57zM311 543 q-9 -50 -9 -98q0 -53 10 -101q20 -94 74 -164.5t139 -111.5t198 -41q131 0 237.5 46t184.5 119.5t128 166t66 184.5q10 55 10 105q0 55 -12 105q-22 95 -79.5 162.5t-143.5 105.5t-192 38q-109 0 -210.5 -39t-184.5 -107.5t-139 -164t-77 -205.5z" />
<glyph unicode="c" horiz-adv-x="1267" d="M184 541q23 121 85.5 225t152.5 181t203.5 121t236.5 44q82 0 160 -23.5t142.5 -70.5t108.5 -118t58 -167h-63q-12 90 -56.5 152.5t-103.5 101.5t-126 55.5t-128 16.5q-115 -2 -205 -36t-188 -110q-78 -59 -138.5 -159.5t-80.5 -210.5q-10 -55 -9 -105q0 -55 11 -105 q22 -95 80.5 -163t144.5 -105.5t190 -37.5q92 0 175.5 26.5t153 70.5t121.5 100.5t85 117.5h63q-45 -84 -108.5 -150.5t-141 -114.5t-168.5 -75t-188 -29q-119 0 -215 41t-160 116q-62 74 -88 180q-14 57 -14 120q0 54 10 113v-2z" />
<glyph unicode="d" horiz-adv-x="1386" d="M184 543q20 113 80 215t149 181t203.5 126t245.5 47q98 0 177 -27.5t135.5 -70.5t90 -97.5t44.5 -107.5h4l131 707h57l-280 -1516h-58l49 270h-4q-96 -139 -239.5 -218t-317.5 -79q-133 0 -231 48.5t-156 126.5q-60 80 -80 182q-10 52 -10 105t10 108zM241 358 q15 -92 66 -165.5t139.5 -119.5t219.5 -46q113 0 214 41t182 111.5t135 164.5t73 199q9 52 9 101q1 55 -11 105q-22 95 -77.5 163.5t-142.5 107.5t-196 39q-106 0 -206.5 -38t-182.5 -105.5t-141.5 -163t-79.5 -209.5q-8 -47 -8 -95q0 -45 7 -90z" />
<glyph unicode="e" horiz-adv-x="1267" d="M164 541q23 123 86 227t154.5 181t205 120t234.5 43q109 0 202 -38t158 -108q66 -70 96 -172q18 -63 18 -136q0 -44 -7 -91l-6 -30h-1082q-10 -56 -9 -105q0 -68 18 -124q32 -96 96.5 -159t148.5 -92.5t164 -29.5q152 0 289 73.5t227 212.5h64q-51 -86 -121 -150.5 t-146.5 -106.5t-158.5 -62.5t-164 -20.5q-125 0 -222.5 43t-158.5 120q-62 78 -86 182q-12 53 -11 109q0 56 11 116v-2zM233 590h1022q5 32 5 63q0 63 -20 122q-28 87 -86 151.5t-142 100.5q-76 32 -159 32h-19q-100 0 -196.5 -35t-178.5 -97.5t-140.5 -148.5t-85.5 -188z " />
<glyph unicode="f" horiz-adv-x="538" d="M193 0l190 1032h-178l10 53h178l21 107q4 18 11 51t23.5 70t44 75.5t71.5 71.5t105.5 55.5t149.5 26.5l-10 -55q-31 -2 -80 -9.5t-100 -35t-95.5 -85t-62.5 -159.5l-20 -113h282l-10 -53h-283l-190 -1032h-57z" />
<glyph unicode="g" horiz-adv-x="1382" d="M115 -129h65q14 -33 37 -78t74 -90q66 -59 145.5 -86t153.5 -27q94 0 192.5 37t180 104.5t142 164t83.5 215.5l29 159h-7q-94 -139 -237.5 -218t-317.5 -79q-135 0 -234 48.5t-158.5 127t-80.5 181.5q-10 51 -10 105q0 53 10 108q20 113 80 215t149 181t205.5 126 t249.5 47q98 0 177 -27.5t135.5 -70.5t90.5 -97.5t44 -107.5h4l51 276h57l-178 -964q-20 -113 -66 -201t-105.5 -152.5t-127 -108.5t-134 -71.5t-126 -39t-100.5 -11.5q-82 0 -158 21.5t-139.5 64.5t-109.5 105.5t-66 142.5zM239 358q15 -92 67 -165.5t141.5 -119.5 t222.5 -46q113 0 214 41t182 111.5t135.5 165t72.5 198.5q9 52 9 101q0 55 -11 105q-23 95 -78 163.5t-142 107.5t-196 39t-210 -38t-184 -105.5t-142.5 -163t-79.5 -209.5q-8 -47 -8 -95q0 -45 7 -90z" />
<glyph unicode="h" horiz-adv-x="1310" d="M160 0l280 1516h58l-119 -639h4q37 59 92 104t119 75q65 30 135 44q62 13 119 12h16q209 0 320 -108q94 -94 94 -271q0 -73 -16 -160l-107 -573h-57l106 573q16 84 16 151q0 46 -8 84q-18 94 -69 148q-53 57 -129 80t-160 23q-207 -4 -345 -117t-175 -317l-117 -625h-57z " />
<glyph unicode="i" horiz-adv-x="376" d="M160 0l200 1085h58l-201 -1085h-57zM406 1329l34 187h58l-35 -187h-57z" />
<glyph unicode="j" horiz-adv-x="448" d="M-109 -436l11 61q78 12 128 44t81.5 81t51 115.5t34.5 146.5l198 1073h58l-199 -1073q-12 -63 -29.5 -137t-56.5 -138.5t-104.5 -112.5t-172.5 -60zM440 1327l35 189h57l-34 -189h-58z" />
<glyph unicode="k" horiz-adv-x="956" d="M160 0l280 1516h58l-226 -1219h4l738 788h76l-500 -530l334 -555h-76l-303 510l-291 -311l-37 -199h-57z" />
<glyph unicode="l" horiz-adv-x="374" d="M160 0l280 1516h58l-281 -1516h-57z" />
<glyph unicode="m" horiz-adv-x="1943" d="M160 0l200 1085h58l-35 -192h4q49 74 108.5 118t117 66.5t103.5 28.5t72 6q98 0 175 -34t120 -99q16 -25 29.5 -57.5t17.5 -69.5h5q12 23 34.5 56.5t65.5 70.5q68 63 158 98t182 35q98 0 165.5 -28.5t110.5 -79.5q55 -66 65 -168q3 -31 3 -64q0 -76 -16 -164l-113 -608 h-57l112 608q15 84 15 156q0 25 -2 49q-7 92 -58 154q-70 92 -235 92q-72 0 -157 -30t-146 -95q-35 -35 -56.5 -65.5t-38 -67.5t-28 -83t-23.5 -110l-112 -608h-58l113 608q14 64 19 112q3 27 3 50q0 19 -2 35q-4 37 -13 66.5t-26 58.5q-72 123 -262 129h-14q-34 1 -67 -7 q-40 -10 -76.5 -25t-70.5 -37.5t-58 -49.5q-55 -51 -96.5 -127t-63.5 -195l-115 -618h-57z" />
<glyph unicode="n" horiz-adv-x="1312" d="M160 0l200 1085h58l-39 -208h4q37 59 92 104t119 75q65 30 135 44q62 13 119 12h16q209 0 320 -108q94 -94 94 -271q0 -73 -16 -160l-107 -573h-57l106 573q16 84 16 151q0 46 -8 84q-18 94 -69 148q-53 57 -129 80t-160 23q-207 -4 -345 -117t-175 -317l-117 -625h-57z " />
<glyph unicode="o" horiz-adv-x="1312" d="M184 543q23 121 85.5 225t153.5 181t203.5 120t235.5 43t219.5 -43t158.5 -120t86 -181q12 -53 13 -109q0 -56 -12 -116q-23 -123 -85 -226.5t-153.5 -180.5t-203 -120t-234.5 -43t-220 43t-159 120q-63 76 -87 180q-12 53 -12 111q0 56 11 116zM242 543 q-10 -54 -10 -104q0 -53 11 -101q21 -94 77.5 -164t142.5 -108.5t196 -38.5q111 0 211.5 38.5t183.5 108.5t139 164t77 205q10 53 10 103q0 53 -12 102q-22 94 -77.5 163.5t-141.5 108.5t-197 39t-211 -39t-183 -108.5t-139.5 -163.5t-76.5 -205z" />
<glyph unicode="p" horiz-adv-x="1386" d="M80 -436l280 1521h58l-49 -270h4q96 139 240.5 218t318.5 79q133 0 230.5 -48t156.5 -127t79 -181q9 -51 9 -104t-10 -109q-20 -113 -80 -215.5t-149 -181t-202.5 -126t-244.5 -47.5q-98 0 -177 28t-136.5 71t-91 97t-44.5 107h-4l-131 -712h-57zM311 543 q-10 -53 -10 -103q0 -54 11 -103q22 -95 78 -164t143.5 -107.5t195.5 -38.5q106 0 206.5 37.5t182.5 105.5t141.5 163t79.5 210q8 47 8 95q0 44 -7 89q-15 92 -66 166t-139.5 120t-219.5 46q-113 0 -214 -41t-181 -111.5t-134 -165t-75 -198.5z" />
<glyph unicode="q" horiz-adv-x="1380" d="M184 543q20 111 79 213t147 181t203.5 127t248.5 48q174 0 288 -79t161 -218h4l49 270h57l-280 -1521h-58l131 712h-4q-31 -53 -85 -107t-125.5 -97t-160.5 -71t-188 -28q-131 0 -228 47.5t-157.5 126t-81.5 181.5q-10 51 -10 106q0 53 10 109zM242 543q-10 -55 -10 -105 q0 -55 12 -105q22 -95 79.5 -163t143.5 -105.5t192 -37.5q109 0 210.5 38.5t183.5 107.5t139 164t78 206q10 53 10 103q0 49 -10 96q-19 94 -74 164.5t-140 111.5t-198 41q-131 0 -237.5 -46t-184.5 -120t-128 -166t-66 -184z" />
<glyph unicode="r" horiz-adv-x="618" d="M160 0l200 1085h58l-37 -196h4q51 76 109.5 120t116 66.5t108.5 28.5t88 8l-10 -55q-51 -2 -109.5 -12.5t-142.5 -63.5q-57 -43 -94 -89t-61.5 -95t-39 -101.5t-24.5 -107.5l-109 -588h-57z" />
<glyph unicode="s" horiz-adv-x="872" d="M152 166q-7 28 -7 59q0 36 9 76h57q-7 -36 -7 -68q0 -83 48 -135q66 -72 184 -71q61 0 113.5 21.5t93.5 57t67.5 84t34.5 101.5q5 29 5 55q0 74 -39 117q-52 59 -179 88q-57 18 -106 37.5t-82 50.5t-48 77q-9 28 -9 63q0 24 4 52q12 68 46 120.5t80 88t103.5 54 t118.5 18.5q59 0 107.5 -18.5t81 -54t44.5 -87.5q6 -26 6 -56q0 -31 -6 -67h-57q6 32 6 59q0 24 -5 46q-11 44 -37.5 72t-66.5 40.5t-83 12.5q-111 0 -189 -64.5t-92 -163.5q-3 -21 -3 -40q0 -68 40 -104q51 -46 160 -79q51 -14 103 -31.5t90 -50t58 -86.5q13 -34 14 -82 q0 -27 -5 -59q-8 -68 -43 -126t-86 -103t-114.5 -71t-133.5 -26q-68 0 -126 23.5t-97 66.5t-53 103z" />
<glyph unicode="t" horiz-adv-x="606" d="M205 1032l10 53h240l80 431h57l-80 -431h279l-11 -53h-278l-191 -1032h-57l190 1032h-239z" />
<glyph unicode="u" horiz-adv-x="1312" d="M254 512l106 573h58l-107 -573q-14 -80 -14 -145q0 -49 8 -89q19 -94 70 -149q51 -57 127 -79.5t160 -22.5q207 2 345 116.5t177 325.5l114 616h58l-201 -1085h-57l41 219h-4q-37 -63 -91.5 -110.5t-119 -78t-134.5 -44.5q-62 -13 -121 -13h-16q-209 0 -321 109 q-94 94 -94 270q0 73 16 160z" />
<glyph unicode="v" horiz-adv-x="985" d="M209 1085h59l236 -1017l606 1017h66l-648 -1085h-73z" />
<glyph unicode="w" horiz-adv-x="1552" d="M221 1085h64l182 -999h4l459 852h43l143 -852h4l549 999h66l-602 -1085h-66l-137 823h-4l-441 -823h-65z" />
<glyph unicode="x" horiz-adv-x="833" d="M20 0l463 545l-262 540h74l233 -485l416 485h70l-461 -540l260 -545h-70l-235 489l-414 -489h-74z" />
<glyph unicode="y" horiz-adv-x="985" d="M180 -436l273 438l-230 1083h64l215 -1005l614 1005h68l-938 -1521h-66z" />
<glyph unicode="z" horiz-adv-x="833" d="M25 0l8 49l856 983h-637l10 53h711l-10 -55l-854 -977h708l-10 -53h-782z" />
<glyph unicode="{" horiz-adv-x="870" d="M319 457l13 57q76 18 142.5 126t94.5 267l72 383q25 131 71 191.5t144 60.5h135l-10 -53h-111q-41 0 -67.5 -10.5t-46 -36t-31.5 -71.5t-27 -118l-69 -379q-8 -51 -28.5 -108t-51.5 -111.5t-70 -99.5t-88 -70q70 -35 95.5 -139t0.5 -235l-69 -375q-14 -78 -17.5 -125 t6 -72.5t32 -34t61.5 -8.5h110l-8 -53h-135q-98 0 -121.5 62.5t0.5 195.5l70 375q27 141 11.5 235.5t-108.5 145.5z" />
<glyph unicode="|" d="M500 -205l319 1721h62l-320 -1721h-61z" />
<glyph unicode="}" horiz-adv-x="870" d="M63 -557l9 53h110q39 0 65.5 8.5t46 34t33 72.5t27.5 125l70 375q12 66 34.5 126t53.5 109t67.5 86t79.5 53q-41 25 -64.5 70t-32.5 99.5t-7 111.5t10 108l70 379q14 72 18 118t-5 71.5t-31.5 36t-63.5 10.5h-111l11 53h135q98 0 121.5 -60.5t-0.5 -191.5l-72 -383 q-29 -160 -3.5 -267.5t97.5 -125.5l-12 -57q-55 -25 -94 -62t-66 -84t-45 -106.5t-31 -128.5l-69 -375q-25 -133 -71 -195.5t-144 -62.5h-136z" />
<glyph unicode="~" horiz-adv-x="1228" d="M242 469q55 76 128.5 115t149.5 32q61 0 116.5 -24.5t111.5 -50.5q53 -29 104 -51.5t98 -22.5q59 0 107.5 41t85.5 86l31 -39q-49 -68 -111 -106.5t-119 -38.5q-59 0 -112.5 22.5t-106.5 50.5q-55 29 -109.5 52.5t-105.5 23.5q-27 2 -55.5 -2t-58 -18.5t-59.5 -40 t-63 -66.5z" />
<glyph unicode="&#xa1;" horiz-adv-x="530" d="M156 -428l219 1176h61l-219 -1176h-61zM406 922l30 165h62l-31 -165h-61z" />
<glyph unicode="&#xa2;" d="M277.5 606q-11.5 78 1.5 150q14 70 52 146.5t100.5 142t153.5 111.5t208 56l34 195h62l-35 -197q41 -6 89 -17t92 -39t81 -74t60 -119h-68q-23 63 -59.5 101t-79.5 58.5t-85 26.5t-75 6q-92 0 -171 -31.5t-139.5 -86t-101.5 -125t-55 -148.5q-14 -76 -3 -147.5t50 -128 t106.5 -91.5t166.5 -35q74 0 133 19.5t106 47.5t80 59.5t49 56.5h70q-55 -78 -115.5 -125t-119 -73t-106.5 -34t-75 -10l-41 -221h-61l41 221q-109 6 -180.5 51t-112.5 110.5t-52.5 143.5z" />
<glyph unicode="&#xa3;" d="M74 0l10 55h303q10 12 30.5 36t45 59.5t47 85t35.5 114.5q23 125 -21.5 217t-142.5 183h-229l10 55h176q-23 37 -37 100.5t-2 149.5q20 102 72.5 190t129.5 153.5t173 103.5t203 38q78 0 149.5 -24.5t125.5 -71.5t90 -117t40 -162h-63q-6 70 -35 128.5t-75 101.5 t-107.5 66.5t-135.5 23.5q-92 -2 -175 -33t-149.5 -87t-113.5 -135t-68 -175q-6 -53 1.5 -118t56.5 -132h559l-10 -55h-500l-2 -5q27 -20 56.5 -56t53 -85t35 -112.5t-3.5 -139.5q-2 -14 -8 -41.5t-22.5 -66.5t-44 -87t-72.5 -102h188q70 0 119 6.5t86 17.5t64.5 28.5 t56.5 39.5q74 66 110.5 133.5t46.5 127.5q6 37 5.5 60.5t-0.5 41.5h63q0 -23 1 -41t-7 -59q-10 -55 -32.5 -103.5t-48.5 -86.5t-52.5 -66.5t-44.5 -44.5q-43 -33 -81 -53.5t-80 -33t-96.5 -17.5t-129.5 -5h-553z" />
<glyph unicode="&#xa4;" d="M131 258l188 158q-92 127 -61 286q14 82 56 154t106 129l-129 158l51 43l129 -158q147 111 307 111q80 0 148.5 -28t117.5 -81l185 156l37 -43l-185 -158q41 -57 56.5 -128t1.5 -155q-16 -82 -59.5 -154.5t-108.5 -131.5l127 -158l-51 -43l-125 156q-72 -49 -150 -77 t-156 -28q-80 0 -147.5 29t-116.5 76l-188 -156zM319 702q-14 -78 4.5 -146.5t61.5 -118.5t106.5 -79.5t137.5 -29.5q76 0 149.5 29.5t135 79.5t105.5 119t58 146q14 80 -4 148t-61 119t-106.5 79.5t-139.5 28.5q-74 0 -147.5 -28.5t-135 -78.5t-106 -119t-58.5 -149z" />
<glyph unicode="&#xa5;" d="M190 510l11 53h438l31 168l-19 53h-409l10 54h379l-285 678h66l301 -717l575 717h66l-543 -678h387l-10 -54h-420l-37 -53l-31 -168h447l-10 -53h-447l-94 -510h-61l94 510h-439z" />
<glyph unicode="&#xa6;" d="M500 -205l129 688h61l-129 -688h-61zM692 827l127 689h62l-127 -689h-62z" />
<glyph unicode="&#xa7;" horiz-adv-x="1173" d="M144.5 -229.5q-17.5 67.5 0.5 166.5l13 65h57l-12 -63q-16 -90 5 -155t65 -104.5t107.5 -57t135.5 -17.5q158 0 268.5 78.5t139.5 220.5q12 82 -21 143.5t-143 116.5l-365 184q-18 10 -49 29.5t-58.5 54.5t-43 91.5t1.5 140.5q8 41 28.5 85t52 84.5t78 77.5t105.5 66 q-23 27 -46.5 79t-6.5 140q16 82 56 145.5t97.5 108.5t129 68.5t149.5 23.5q166 0 253 -88t56 -254h-57q6 86 -11.5 141.5t-54.5 86t-88 42t-110 11.5q-139 0 -237.5 -77t-123.5 -202q-10 -61 1 -104t37 -72t58.5 -49.5t61.5 -34.5l280 -145q18 -10 54 -32t70 -59.5 t54.5 -93t8.5 -131.5q-18 -98 -88 -182t-166 -135q41 -33 62.5 -68t29.5 -68.5t8 -65.5t-6 -58q-14 -78 -56 -143.5t-104.5 -113.5t-142.5 -76t-170 -28q-8 0 -44 2t-82 12.5t-96 35t-87 67.5t-54.5 110.5zM301 657q-12 -86 17.5 -148.5t95.5 -96.5l422 -213 q31 12 69.5 37.5t73.5 61.5t64.5 82t37.5 97q12 61 -1 105.5t-40.5 74t-60.5 50t-64 36.5l-368 195q-92 -41 -157.5 -110.5t-88.5 -170.5z" />
<glyph unicode="&#xa8;" d="M651 1266l43 237h60l-43 -237h-60zM897 1266l43 237h59l-43 -237h-59z" />
<glyph unicode="&#xa9;" horiz-adv-x="1638" d="M178 758q29 160 114 302t209 248.5t278.5 168t324.5 61.5q168 0 299 -61.5t216 -167t117.5 -247.5t4.5 -304q-31 -166 -119 -309.5t-213 -248t-278.5 -164t-315.5 -59.5q-164 0 -296 58.5t-219 163t-121 248t-1 311.5zM236 758q-29 -154 1.5 -286t110.5 -230.5 t202 -154.5t275 -56q152 0 294.5 55t258 153.5t196.5 231.5t109 287q27 150 -2.5 281.5t-107.5 231t-199.5 157t-279.5 57.5t-301.5 -58.5t-258 -158t-193.5 -231.5t-105 -279zM528 756q20 104 68.5 192t118 150.5t158 97.5t188.5 35q76 0 140.5 -22.5t110.5 -63.5 t69.5 -97.5t19.5 -123.5h-58q-2 70 -27.5 118t-67.5 78.5t-94 44t-103 13.5q-80 0 -157 -29t-138.5 -82t-105.5 -131t-62 -178q-23 -115 -1.5 -195t67.5 -129t109.5 -71.5t129.5 -22.5q25 0 80 8t119.5 42t126 99.5t96.5 182.5h57q-25 -92 -76 -164t-116.5 -121 t-143.5 -74.5t-155 -25.5q-80 0 -153 27.5t-125 85t-74.5 145.5t-0.5 211z" />
<glyph unicode="&#xaa;" horiz-adv-x="899" d="M272 1186q14 74 55.5 138.5t100.5 113.5t132 76.5t151 27.5q66 0 122 -22.5t95 -63.5q18 -23 33.5 -49.5t21.5 -54.5h4l33 174h57l-127 -682h-57l33 170h-4q-16 -29 -49 -65t-99 -72q-63 -35 -115.5 -42.5t-80.5 -7.5q-84 0 -147.5 30t-102.5 80t-53.5 114.5t-2.5 134.5z M330 1075.5q10 -53.5 43 -96.5t87 -70.5t130 -27.5q70 0 131 24.5t110.5 66.5t82 97t42.5 115q12 63 -3 119.5t-51 97.5t-87 64.5t-115 23.5q-59 0 -118.5 -20.5t-111.5 -60.5t-90 -98t-50 -132q-10 -49 0 -102.5z" />
<glyph unicode="&#xab;" horiz-adv-x="718" d="M205 565l301 396l31 -54l-261 -342l134 -340l-50 -53zM432 565l303 396l29 -54l-260 -342l133 -340l-47 -53z" />
<glyph unicode="&#xac;" horiz-adv-x="1228" d="M229 682l11 57h1024l-84 -454h-58l74 397h-967z" />
<glyph unicode="&#xad;" horiz-adv-x="544" d="M100 537l11 59h544l-10 -59h-545z" />
<glyph unicode="&#xae;" horiz-adv-x="1638" d="M178 758q29 160 114 302t209 248.5t278.5 168t324.5 61.5q168 0 299 -61.5t216 -167t117.5 -247.5t4.5 -304q-31 -166 -119 -309.5t-213 -248t-278.5 -164t-315.5 -59.5q-164 0 -296 58.5t-219 163t-121 248t-1 311.5zM236 758q-29 -154 1.5 -286t110.5 -230.5 t202 -154.5t275 -56q152 0 294.5 55t258 153.5t196.5 231.5t109 287q27 150 -2.5 281.5t-107.5 231t-199.5 157t-279.5 57.5t-301.5 -58.5t-258 -158t-193.5 -231.5t-105 -279zM537 299l168 907h378q20 0 70.5 -4t100 -26.5t82 -71.5t16.5 -141t-79 -146.5t-138 -75.5v-4 q92 -23 110.5 -78t7.5 -127q-8 -68 -12 -108.5t-6 -64t0 -36t6 -24.5h-59q-4 8 -6 17.5t0 30t7 57t13 100.5q4 47 4 86t-21.5 65.5t-72.5 41t-145 14.5h-291l-76 -412h-57zM680 764h287q25 2 74 6t101 22.5t95 57.5t57 113q14 72 -10 110.5t-65 56t-86.5 20.5t-69.5 3h-311z " />
<glyph unicode="&#xaf;" d="M453 1352l12 61h729l-12 -61h-729z" />
<glyph unicode="&#xb0;" horiz-adv-x="819" d="M332 1159q10 61 43 114.5t80 93.5t104 62.5t119 22.5q61 0 110.5 -22.5t82 -62.5t45 -93.5t2.5 -114.5q-12 -61 -44 -114.5t-80.5 -93.5t-105.5 -62.5t-119 -22.5q-61 0 -110 22.5t-81 62.5t-45.5 93.5t-0.5 114.5zM389 1159q-10 -49 1 -92t37 -74.5t65.5 -50t89.5 -18.5 q49 0 95 18.5t84 50t63.5 74.5t35.5 92q8 49 -2 92t-35.5 75t-65.5 50.5t-89 18.5t-95.5 -18.5t-84 -50.5t-64.5 -75t-35 -92z" />
<glyph unicode="&#xb1;" horiz-adv-x="1228" d="M98 0l11 57h1032l-11 -57h-1032zM205 575l10 58h487l76 403h58l-76 -403h487l-10 -58h-487l-74 -403h-58l74 403h-487z" />
<glyph unicode="&#xb2;" horiz-adv-x="718" d="M186 606l9 47l452 396q72 66 108 113.5t44 99.5q8 39 5 77.5t-22.5 70.5t-55.5 51.5t-95 19.5q-96 0 -166 -66.5t-92 -185.5h-58q16 82 51 139t81.5 94t98.5 53.5t99 16.5q117 0 176.5 -71.5t34.5 -198.5q-12 -68 -59 -126.5t-117 -123.5l-406 -355h476l-9 -51h-555z" />
<glyph unicode="&#xb3;" horiz-adv-x="718" d="M231 881h58q-10 -68 3 -114t41.5 -73.5t65.5 -40t72 -12.5q109 0 180.5 65.5t89.5 163.5q6 35 0 76t-29.5 75t-64.5 56.5t-106 22.5h-56l9 51h55q66 0 106.5 21.5t64 49t34 55.5t12.5 38q12 66 -20.5 115t-108.5 51q-74 2 -127 -45t-72 -121h-57q12 59 43 100t68.5 67.5 t78.5 38t76 11.5q41 0 77 -15.5t61.5 -44t37 -67.5t0.5 -88q-8 -45 -27.5 -77t-42 -54.5t-45 -36.5t-36.5 -21q70 -31 106.5 -99t20.5 -155q-10 -61 -42 -113t-77 -90t-101.5 -59.5t-117.5 -21.5q-51 0 -98.5 18.5t-81 54t-49 90t-1.5 128.5z" />
<glyph unicode="&#xb4;" d="M565 1286l539 283l20 -47l-540 -283z" />
<glyph unicode="&#xb6;" horiz-adv-x="1148" d="M229 1106q23 121 94.5 209t153.5 135q41 23 120 44.5t187 21.5h504l-10 -58h-131l-318 -1716h-61l317 1712h-264l-317 -1712h-62l179 960h-41q-102 0 -175 33t-116 89.5t-58.5 129t-1.5 152.5z" />
<glyph unicode="&#xb7;" horiz-adv-x="567" d="M336 440l31 166h61l-31 -166h-61z" />
<glyph unicode="&#xb8;" d="M365 -285h55q2 -27 13 -41t25.5 -21t27 -8t18.5 -1q35 0 67.5 24.5t44.5 75.5q6 41 -17.5 66.5t-59.5 25.5q-53 0 -93 -51l-45 10l134 205h59l-74 -115l2 -2q6 2 12.5 4t16.5 2q72 0 101.5 -46t19.5 -99q-10 -55 -56.5 -105.5t-121.5 -50.5q-10 0 -32 3t-43.5 15.5 t-37.5 38t-16 70.5z" />
<glyph unicode="&#xb9;" horiz-adv-x="718" d="M424 1464l8 52h252l-168 -910h-57l159 858h-194z" />
<glyph unicode="&#xba;" horiz-adv-x="899" d="M309 1178q14 78 54 144.5t95.5 114.5t127 76.5t147.5 28.5q80 0 141.5 -28.5t99.5 -78t53 -114t1 -135.5q-14 -82 -57 -147.5t-102.5 -112.5t-130 -73t-138.5 -26q-72 0 -131 28t-100 75t-57.5 110.5t-2.5 137.5zM367 1180q-12 -59 2 -113.5t45.5 -95.5t83 -65.5 t112.5 -24.5q59 0 118.5 22.5t109 63.5t85 96t48.5 123q12 61 -1.5 116.5t-46 96.5t-81.5 65.5t-115 24.5q-59 0 -118.5 -21.5t-109.5 -62.5t-85 -98t-47 -127z" />
<glyph unicode="&#xbb;" horiz-adv-x="718" d="M164 225l260 340l-133 342l49 54l156 -396l-301 -393zM391 225l260 340l-133 342l51 54l154 -396l-299 -393z" />
<glyph unicode="&#xbc;" horiz-adv-x="1433" d="M293 0l954 1516h62l-957 -1516h-59zM362 1464l9 52h252l-168 -910h-58l160 858h-195zM768 174l8 43l584 692h67l-127 -684h86l-8 -51h-86l-32 -174h-58l33 174h-467zM846 225h397l113 609l2 -5l-4 5z" />
<glyph unicode="&#xbd;" horiz-adv-x="1536" d="M293 0l954 1516h62l-957 -1516h-59zM362 1464l9 52h252l-168 -910h-58l160 858h-195zM893 0l8 47l453 395q72 66 107.5 114t43.5 99q8 39 5 78t-21.5 71t-55 51t-96.5 19q-96 0 -165.5 -66.5t-92.5 -184.5h-57q16 82 51 139t81 94t98.5 53.5t99.5 16.5q117 0 176 -72 t35 -199q-12 -68 -58.5 -126t-118.5 -123l-403 -355h475l-10 -51h-555z" />
<glyph unicode="&#xbe;" horiz-adv-x="1652" d="M246 881h57q-10 -68 3 -114t42 -73.5t66 -40t71 -12.5q109 0 180.5 65.5t90.5 163.5q6 35 0 76t-30 75t-64.5 56.5t-106.5 22.5h-55l8 51h55q66 0 107 21.5t64.5 49t33.5 55.5t12 38q12 66 -20.5 115t-108.5 51q-74 2 -127 -45t-71 -121h-58q12 59 43 100t69 67.5t79 38 t76 11.5q41 0 76.5 -15.5t61 -44t37 -67.5t1.5 -88q-8 -45 -27.5 -77t-42.5 -54.5t-45.5 -36.5t-36.5 -21q70 -31 106.5 -99t20.5 -155q-10 -61 -42 -113t-77 -90t-101 -59.5t-118 -21.5q-51 0 -98 18.5t-81 54t-49.5 90t-0.5 128.5zM514 0l954 1516h62l-957 -1516h-59z M989 174l8 43l584 692h68l-127 -684h86l-9 -51h-86l-32 -174h-58l33 174h-467zM1067 225h397l113 609l2 -5l-4 5z" />
<glyph unicode="&#xbf;" horiz-adv-x="1097" d="M137 -25q10 61 42 114.5t77 102t96 92.5t101 85q70 57 110.5 110t64 100.5t33 89.5t15.5 76h61q-10 -49 -23.5 -99t-41 -103.5t-74.5 -110.5t-127 -121q-49 -41 -92 -77.5t-79 -75.5t-62.5 -84t-40.5 -103q-12 -74 3 -139t55 -115.5t103.5 -79t143.5 -28.5 q59 0 127.5 19.5t132 62.5t115 112.5t73.5 169.5h62q-31 -123 -92.5 -204.5t-136 -132t-153.5 -71t-138 -20.5q-86 0 -159 31t-122 88t-70.5 136t-3.5 175zM711 920l30 165h60l-31 -165h-59z" />
<glyph unicode="&#xc0;" horiz-adv-x="1406" d="M14 0l930 1516h80l369 -1516h-66l-129 528h-792l-326 -528h-66zM442 584h740l-209 874zM782 1901l37 47l434 -283l-36 -47z" />
<glyph unicode="&#xc1;" horiz-adv-x="1406" d="M14 0l930 1516h80l369 -1516h-66l-129 528h-792l-326 -528h-66zM442 584h740l-209 874zM772 1665l537 283l20 -47l-541 -283z" />
<glyph unicode="&#xc2;" horiz-adv-x="1406" d="M14 0l930 1516h80l369 -1516h-66l-129 528h-792l-326 -528h-66zM442 584h740l-209 874zM616 1686l441 225l360 -225l-59 -31l-314 192l-382 -192z" />
<glyph unicode="&#xc3;" horiz-adv-x="1406" d="M14 0l930 1516h80l369 -1516h-66l-129 528h-792l-326 -528h-66zM442 584h740l-209 874zM664 1790q41 29 91 50.5t122 21.5q33 0 67.5 -8.5t97.5 -41.5q27 -16 47.5 -26t40 -16.5t39 -9.5t45.5 -3q41 0 74 11.5t78 35.5l33 -43q-41 -25 -92.5 -45t-102.5 -20q-41 0 -84 9 t-92 42q-31 18 -52.5 29.5t-38.5 17.5t-33.5 8t-37.5 2q-53 0 -98 -18.5t-72 -36.5z" />
<glyph unicode="&#xc4;" horiz-adv-x="1406" d="M14 0l930 1516h80l369 -1516h-66l-129 528h-792l-326 -528h-66zM442 584h740l-209 874zM856 1645l43 237h59l-43 -237h-59zM1102 1645l43 237h59l-43 -237h-59z" />
<glyph unicode="&#xc5;" horiz-adv-x="1406" d="M14 0l930 1516h80l369 -1516h-66l-129 528h-792l-326 -528h-66zM442 584h740l-209 874zM838 1733q6 39 27.5 72.5t52 59t67.5 40t74 14.5q39 0 70.5 -14.5t52 -40t29 -59t1.5 -72.5q-8 -39 -28.5 -73t-50 -59.5t-67.5 -40t-77 -14.5q-78 0 -122 54.5t-29 132.5zM895 1735 q-10 -53 20.5 -91t83.5 -38q55 0 100.5 37.5t55.5 91.5q10 53 -20.5 92t-85.5 39q-53 0 -98.5 -39t-55.5 -92z" />
<glyph unicode="&#xc6;" horiz-adv-x="1933" d="M-16 0l1329 1516h749l-10 -56h-647l-123 -669h647l-10 -56h-647l-127 -680h647l-10 -55h-709l101 541h-646l-475 -541h-69zM584 596h600l164 883h-5z" />
<glyph unicode="&#xc7;" horiz-adv-x="1609" d="M225 758q31 170 119 314.5t215 248.5t280.5 162.5t317.5 58.5q121 0 218.5 -32.5t171 -85t124.5 -118t82 -128.5h-72q-18 31 -55 82t-102.5 101t-158.5 88t-218 38q-152 0 -294 -55.5t-259 -152.5t-198 -230.5t-109 -290.5q-31 -158 0.5 -291t112.5 -230.5t203 -152.5 t274 -55q133 0 242.5 38.5t192.5 89t137 100.5t75 73h69q-51 -66 -126.5 -129.5t-169 -114.5t-203 -82t-228.5 -31h-10l-57 -88l2 -2l12 4t16 2q72 0 102 -46t19 -99q-10 -55 -56 -105.5t-122 -50.5q-10 0 -31.5 3t-43 15.5t-38 38t-16.5 70.5h55q2 -27 13.5 -41t26 -21 t26.5 -8t18 -1q35 0 68 24.5t45 75.5q6 41 -17.5 66.5t-60.5 25.5q-53 0 -92 -51l-45 10l119 182q-150 12 -269.5 75t-196.5 165t-107.5 240.5t-0.5 300.5z" />
<glyph unicode="&#xc8;" horiz-adv-x="1120" d="M158 0l280 1516h832l-10 -56h-771l-122 -669h770l-11 -56h-770l-127 -680h770l-10 -55h-831zM639 1901l37 47l434 -283l-37 -47z" />
<glyph unicode="&#xc9;" horiz-adv-x="1120" d="M158 0l280 1516h832l-10 -56h-771l-122 -669h770l-11 -56h-770l-127 -680h770l-10 -55h-831zM629 1665l536 283l21 -47l-541 -283z" />
<glyph unicode="&#xca;" horiz-adv-x="1120" d="M158 0l280 1516h832l-10 -56h-771l-122 -669h770l-11 -56h-770l-127 -680h770l-10 -55h-831zM473 1686l440 225l361 -225l-60 -31l-313 192l-383 -192z" />
<glyph unicode="&#xcb;" horiz-adv-x="1120" d="M158 0l280 1516h832l-10 -56h-771l-122 -669h770l-11 -56h-770l-127 -680h770l-10 -55h-831zM713 1645l43 237h59l-43 -237h-59zM958 1645l43 237h60l-43 -237h-60z" />
<glyph unicode="&#xcc;" horiz-adv-x="378" d="M158 0l280 1516h62l-281 -1516h-61zM227 1901l37 47l434 -283l-36 -47z" />
<glyph unicode="&#xcd;" horiz-adv-x="378" d="M158 0l280 1516h62l-281 -1516h-61zM299 1665l537 283l20 -47l-541 -283z" />
<glyph unicode="&#xce;" horiz-adv-x="378" d="M102 1686l441 225l360 -225l-59 -31l-314 192l-383 -192zM158 0l280 1516h62l-281 -1516h-61z" />
<glyph unicode="&#xcf;" horiz-adv-x="378" d="M158 0l280 1516h62l-281 -1516h-61zM342 1645l43 237h59l-43 -237h-59zM588 1645l43 237h59l-43 -237h-59z" />
<glyph unicode="&#xd0;" horiz-adv-x="1435" d="M137 735l10 56h158l133 725h428q178 0 311.5 -51.5t213 -148.5t106.5 -238.5t-6 -319.5q-35 -178 -113 -319.5t-194.5 -239t-268 -148.5t-329.5 -51h-428l137 735h-158zM229 55h367q164 0 303 47.5t246.5 137.5t179.5 220t102 294q31 166 8.5 297t-96 222t-195.5 139 t-288 48h-367l-122 -669h514l-11 -56h-514z" />
<glyph unicode="&#xd1;" horiz-adv-x="1511" d="M158 0l280 1516h92l773 -1434h4l266 1434h61l-280 -1516h-78l-782 1454h-5l-270 -1454h-61zM717 1790q41 29 91 50.5t122 21.5q33 0 67.5 -8.5t98.5 -41.5q27 -16 47 -26t39.5 -16.5t39 -9.5t46.5 -3q41 0 73.5 11.5t77.5 35.5l33 -43q-41 -25 -92 -45t-103 -20 q-41 0 -84 9t-92 42q-31 18 -52 29.5t-38.5 17.5t-34 8t-36.5 2q-53 0 -98.5 -18.5t-71.5 -36.5z" />
<glyph unicode="&#xd2;" horiz-adv-x="1742" d="M225 758q31 170 119 314.5t215 248.5t280.5 162.5t317.5 58.5q162 0 294 -58.5t220 -162.5t123 -248.5t4 -314.5q-33 -170 -121 -314.5t-215 -249t-280.5 -163t-315.5 -58.5q-164 0 -296 58.5t-220 163t-123 249t-2 314.5zM287 758q-31 -158 0.5 -291t112.5 -230.5 t203 -152.5t274 -55q150 0 292 55t257.5 152.5t197.5 230.5t113 291q29 158 -4 291t-113 230t-202 152.5t-271 55.5q-152 0 -294 -55.5t-259 -152.5t-197.5 -230t-109.5 -291zM950 1901l37 47l434 -283l-37 -47z" />
<glyph unicode="&#xd3;" horiz-adv-x="1742" d="M225 758q31 170 119 314.5t215 248.5t280.5 162.5t317.5 58.5q162 0 294 -58.5t220 -162.5t123 -248.5t4 -314.5q-33 -170 -121 -314.5t-215 -249t-280.5 -163t-315.5 -58.5q-164 0 -296 58.5t-220 163t-123 249t-2 314.5zM287 758q-31 -158 0.5 -291t112.5 -230.5 t203 -152.5t274 -55q150 0 292 55t257.5 152.5t197.5 230.5t113 291q29 158 -4 291t-113 230t-202 152.5t-271 55.5q-152 0 -294 -55.5t-259 -152.5t-197.5 -230t-109.5 -291zM940 1665l537 283l20 -47l-541 -283z" />
<glyph unicode="&#xd4;" horiz-adv-x="1742" d="M225 758q31 170 119 314.5t215 248.5t280.5 162.5t317.5 58.5q162 0 294 -58.5t220 -162.5t123 -248.5t4 -314.5q-33 -170 -121 -314.5t-215 -249t-280.5 -163t-315.5 -58.5q-164 0 -296 58.5t-220 163t-123 249t-2 314.5zM287 758q-31 -158 0.5 -291t112.5 -230.5 t203 -152.5t274 -55q150 0 292 55t257.5 152.5t197.5 230.5t113 291q29 158 -4 291t-113 230t-202 152.5t-271 55.5q-152 0 -294 -55.5t-259 -152.5t-197.5 -230t-109.5 -291zM784 1686l441 225l360 -225l-59 -31l-314 192l-383 -192z" />
<glyph unicode="&#xd5;" horiz-adv-x="1742" d="M225 758q31 170 119 314.5t215 248.5t280.5 162.5t317.5 58.5q162 0 294 -58.5t220 -162.5t123 -248.5t4 -314.5q-33 -170 -121 -314.5t-215 -249t-280.5 -163t-315.5 -58.5q-164 0 -296 58.5t-220 163t-123 249t-2 314.5zM287 758q-31 -158 0.5 -291t112.5 -230.5 t203 -152.5t274 -55q150 0 292 55t257.5 152.5t197.5 230.5t113 291q29 158 -4 291t-113 230t-202 152.5t-271 55.5q-152 0 -294 -55.5t-259 -152.5t-197.5 -230t-109.5 -291zM831 1790q41 29 91.5 50.5t121.5 21.5q33 0 68 -8.5t98 -41.5q27 -16 47.5 -26t40 -16.5t39 -9.5 t45.5 -3q41 0 74 11.5t78 35.5l33 -43q-41 -25 -92.5 -45t-102.5 -20q-41 0 -84 9t-92 42q-31 18 -52.5 29.5t-39 17.5t-33.5 8t-37 2q-53 0 -98 -18.5t-72 -36.5z" />
<glyph unicode="&#xd6;" horiz-adv-x="1742" d="M225 758q31 170 119 314.5t215 248.5t280.5 162.5t317.5 58.5q162 0 294 -58.5t220 -162.5t123 -248.5t4 -314.5q-33 -170 -121 -314.5t-215 -249t-280.5 -163t-315.5 -58.5q-164 0 -296 58.5t-220 163t-123 249t-2 314.5zM287 758q-31 -158 0.5 -291t112.5 -230.5 t203 -152.5t274 -55q150 0 292 55t257.5 152.5t197.5 230.5t113 291q29 158 -4 291t-113 230t-202 152.5t-271 55.5q-152 0 -294 -55.5t-259 -152.5t-197.5 -230t-109.5 -291zM1024 1645l43 237h59l-43 -237h-59zM1270 1645l43 237h59l-43 -237h-59z" />
<glyph unicode="&#xd7;" horiz-adv-x="1228" d="M111 47l557 467l-385 463l49 45l385 -467l557 467l33 -45l-553 -463l381 -467l-50 -43l-383 469l-559 -469z" />
<glyph unicode="&#xd8;" horiz-adv-x="1742" d="M166 -139l248 270q-121 104 -173.5 266t-15.5 361q31 170 119 314.5t215 248.5t280.5 162.5t317.5 58.5q127 0 233.5 -34.5t190.5 -98.5l225 248l43 -37l-227 -248q115 -109 163 -265.5t13 -348.5q-33 -170 -121 -314.5t-215 -249t-280.5 -163t-315.5 -58.5 q-121 0 -223 33t-184 92l-252 -274zM287 758q-35 -184 12 -333t158 -247l1079 1184q-78 59 -175 92t-214 33q-152 0 -294 -55.5t-259 -152.5t-198 -230.5t-109 -290.5zM502 145q156 -117 375 -116q150 0 292 55t257.5 152.5t197.5 230.5t113 291q33 178 -11.5 323.5 t-146.5 243.5z" />
<glyph unicode="&#xd9;" horiz-adv-x="1239" d="M233.5 293.5q-6.5 62.5 3 125t17.5 113.5l182 984h62l-183 -984q-10 -55 -17 -102t-6 -90t12 -85t38 -87q37 -66 116 -102.5t171 -36.5q86 0 177 36.5t152 102.5q43 45 71 87t45.5 85t26.5 90t19 102l183 984h61l-182 -984q-8 -51 -23.5 -113.5t-44.5 -125t-77 -121.5 t-124 -106q-68 -43 -144.5 -68t-154.5 -25t-145.5 25t-118.5 68q-59 47 -84.5 106t-32 121.5zM698 1901l37 47l434 -283l-36 -47z" />
<glyph unicode="&#xda;" horiz-adv-x="1239" d="M233.5 293.5q-6.5 62.5 3 125t17.5 113.5l182 984h62l-183 -984q-10 -55 -17 -102t-6 -90t12 -85t38 -87q37 -66 116 -102.5t171 -36.5q86 0 177 36.5t152 102.5q43 45 71 87t45.5 85t26.5 90t19 102l183 984h61l-182 -984q-8 -51 -23.5 -113.5t-44.5 -125t-77 -121.5 t-124 -106q-68 -43 -144.5 -68t-154.5 -25t-145.5 25t-118.5 68q-59 47 -84.5 106t-32 121.5zM688 1665l537 283l20 -47l-540 -283z" />
<glyph unicode="&#xdb;" horiz-adv-x="1239" d="M233.5 293.5q-6.5 62.5 3 125t17.5 113.5l182 984h62l-183 -984q-10 -55 -17 -102t-6 -90t12 -85t38 -87q37 -66 116 -102.5t171 -36.5q86 0 177 36.5t152 102.5q43 45 71 87t45.5 85t26.5 90t19 102l183 984h61l-182 -984q-8 -51 -23.5 -113.5t-44.5 -125t-77 -121.5 t-124 -106q-68 -43 -144.5 -68t-154.5 -25t-145.5 25t-118.5 68q-59 47 -84.5 106t-32 121.5zM532 1686l441 225l360 -225l-59 -31l-313 192l-383 -192z" />
<glyph unicode="&#xdc;" horiz-adv-x="1239" d="M233.5 293.5q-6.5 62.5 3 125t17.5 113.5l182 984h62l-183 -984q-10 -55 -17 -102t-6 -90t12 -85t38 -87q37 -66 116 -102.5t171 -36.5q86 0 177 36.5t152 102.5q43 45 71 87t45.5 85t26.5 90t19 102l183 984h61l-182 -984q-8 -51 -23.5 -113.5t-44.5 -125t-77 -121.5 t-124 -106q-68 -43 -144.5 -68t-154.5 -25t-145.5 25t-118.5 68q-59 47 -84.5 106t-32 121.5zM772 1645l43 237h59l-43 -237h-59zM1018 1645l43 237h59l-43 -237h-59z" />
<glyph unicode="&#xdd;" horiz-adv-x="1134" d="M311 1516h68l299 -924l637 924h69l-690 -994l-96 -522h-61l96 522zM637 1665l537 283l20 -47l-541 -283z" />
<glyph unicode="&#xde;" horiz-adv-x="1046" d="M137 0l281 1516h61l-59 -320h291q74 0 127 -4t95 -13.5t74.5 -27.5t65.5 -45q59 -49 85 -142.5t5 -197.5q-18 -104 -78.5 -197.5t-136.5 -142.5q-43 -29 -83 -46.5t-85 -26.5t-100 -13t-129 -4h-291l-61 -336h-62zM270 391h293q68 0 118 4t92 14.5t78 26t73 39.5 q31 20 59.5 52t52 70t41 81t25.5 86q16 88 -4.5 170t-65.5 123q-29 25 -58.5 40t-68.5 25.5t-87 14.5t-116 4h-292z" />
<glyph unicode="&#xdf;" horiz-adv-x="1144" d="M156 0l178 967q16 88 32.5 151.5t34 110.5t40 83t51.5 66q66 78 157.5 120t181.5 42q94 0 163 -29.5t111 -83t56.5 -128t-2.5 -162.5q-6 -33 -23.5 -82t-50 -101.5t-87 -100.5t-134.5 -79v-4q84 -12 141.5 -50t88 -92.5t39 -120t-4.5 -128.5q-16 -92 -64 -167 t-112.5 -128t-142.5 -82t-156 -29q-68 0 -134 20.5t-115.5 69t-74 128t-7.5 200.5h57q-16 -111 9.5 -180.5t70.5 -110.5t102 -57t107 -16q66 0 132 25.5t121.5 70.5t95.5 107.5t52 138.5q4 20 7 53t-3 71.5t-23.5 79.5t-56.5 78q-23 16 -44 30.5t-54 26t-80 17.5t-117 6h-57 l10 53h56q63 0 127.5 27t119 73t94 110.5t54.5 142.5q31 170 -47 260t-230 90q-78 0 -156.5 -35t-127.5 -94q-35 -39 -57.5 -78t-38 -84t-27.5 -101.5t-27 -127.5l-178 -967h-57z" />
<glyph unicode="&#xe0;" horiz-adv-x="1380" d="M184 543q20 113 80 215t149 181t203.5 126t245.5 47q98 0 177 -27.5t135.5 -70.5t90 -97.5t44.5 -107.5h4l51 276h57l-200 -1085h-58l49 270h-4q-96 -139 -239.5 -218t-317.5 -79q-133 0 -231 48.5t-156.5 127t-79 181t-0.5 213.5zM241 358.5q15 -92.5 66 -166 t139.5 -119.5t219.5 -46q113 0 214 41t182 111.5t135 164.5t73 199q20 111 -2.5 206t-77.5 163.5t-142 107.5t-196 39q-106 0 -206.5 -38t-182.5 -105.5t-141.5 -163t-79.5 -209.5q-16 -92 -1 -184.5zM700 1522l37 47l432 -283l-34 -47z" />
<glyph unicode="&#xe1;" horiz-adv-x="1380" d="M184 543q20 113 80 215t149 181t203.5 126t245.5 47q98 0 177 -27.5t135.5 -70.5t90 -97.5t44.5 -107.5h4l51 276h57l-200 -1085h-58l49 270h-4q-96 -139 -239.5 -218t-317.5 -79q-133 0 -231 48.5t-156.5 127t-79 181t-0.5 213.5zM241 358.5q15 -92.5 66 -166 t139.5 -119.5t219.5 -46q113 0 214 41t182 111.5t135 164.5t73 199q20 111 -2.5 206t-77.5 163.5t-142 107.5t-196 39q-106 0 -206.5 -38t-182.5 -105.5t-141.5 -163t-79.5 -209.5q-16 -92 -1 -184.5zM678 1286l539 283l20 -47l-541 -283z" />
<glyph unicode="&#xe2;" horiz-adv-x="1380" d="M184 543q20 113 80 215t149 181t203.5 126t245.5 47q98 0 177 -27.5t135.5 -70.5t90 -97.5t44.5 -107.5h4l51 276h57l-200 -1085h-58l49 270h-4q-96 -139 -239.5 -218t-317.5 -79q-133 0 -231 48.5t-156.5 127t-79 181t-0.5 213.5zM241 358.5q15 -92.5 66 -166 t139.5 -119.5t219.5 -46q113 0 214 41t182 111.5t135 164.5t73 199q20 111 -2.5 206t-77.5 163.5t-142 107.5t-196 39q-106 0 -206.5 -38t-182.5 -105.5t-141.5 -163t-79.5 -209.5q-16 -92 -1 -184.5zM532 1307l443 225l358 -225l-59 -31l-311 192l-385 -192z" />
<glyph unicode="&#xe3;" horiz-adv-x="1380" d="M184 543q20 113 80 215t149 181t203.5 126t245.5 47q98 0 177 -27.5t135.5 -70.5t90 -97.5t44.5 -107.5h4l51 276h57l-200 -1085h-58l49 270h-4q-96 -139 -239.5 -218t-317.5 -79q-133 0 -231 48.5t-156.5 127t-79 181t-0.5 213.5zM241 358.5q15 -92.5 66 -166 t139.5 -119.5t219.5 -46q113 0 214 41t182 111.5t135 164.5t73 199q20 111 -2.5 206t-77.5 163.5t-142 107.5t-196 39q-106 0 -206.5 -38t-182.5 -105.5t-141.5 -163t-79.5 -209.5q-16 -92 -1 -184.5zM578 1391q39 29 90 50t123 21q33 0 67.5 -8t97.5 -41q25 -16 46.5 -26.5 t40 -16.5t39 -9t46.5 -3q41 0 74 11t78 36l33 -43q-41 -25 -92.5 -45.5t-102.5 -20.5q-41 0 -84 9.5t-92 42.5q-31 18 -52.5 29.5t-38.5 17.5t-33.5 8t-37.5 2q-53 0 -98 -18.5t-72 -36.5z" />
<glyph unicode="&#xe4;" horiz-adv-x="1380" d="M184 543q20 113 80 215t149 181t203.5 126t245.5 47q98 0 177 -27.5t135.5 -70.5t90 -97.5t44.5 -107.5h4l51 276h57l-200 -1085h-58l49 270h-4q-96 -139 -239.5 -218t-317.5 -79q-133 0 -231 48.5t-156.5 127t-79 181t-0.5 213.5zM241 358.5q15 -92.5 66 -166 t139.5 -119.5t219.5 -46q113 0 214 41t182 111.5t135 164.5t73 199q20 111 -2.5 206t-77.5 163.5t-142 107.5t-196 39q-106 0 -206.5 -38t-182.5 -105.5t-141.5 -163t-79.5 -209.5q-16 -92 -1 -184.5zM774 1266l43 237h60l-43 -237h-60zM1020 1266l43 237h59l-43 -237h-59z " />
<glyph unicode="&#xe5;" horiz-adv-x="1380" d="M184 543q20 113 80 215t149 181t203.5 126t245.5 47q98 0 177 -27.5t135.5 -70.5t90 -97.5t44.5 -107.5h4l51 276h57l-200 -1085h-58l49 270h-4q-96 -139 -239.5 -218t-317.5 -79q-133 0 -231 48.5t-156.5 127t-79 181t-0.5 213.5zM241 358.5q15 -92.5 66 -166 t139.5 -119.5t219.5 -46q113 0 214 41t182 111.5t135 164.5t73 199q20 111 -2.5 206t-77.5 163.5t-142 107.5t-196 39q-106 0 -206.5 -38t-182.5 -105.5t-141.5 -163t-79.5 -209.5q-16 -92 -1 -184.5zM764 1401q6 39 27.5 72.5t52 59.5t67.5 40t74 14q39 0 70.5 -14t52 -40 t29 -59.5t2.5 -72.5q-8 -39 -28.5 -73t-50.5 -59.5t-68 -40t-77 -14.5q-78 0 -121.5 54.5t-29.5 132.5zM821 1403q-10 -53 20.5 -91t84.5 -38q55 0 100 38t55 91t-20.5 92t-85.5 39q-53 0 -98.5 -39t-55.5 -92z" />
<glyph unicode="&#xe6;" horiz-adv-x="2363" d="M184 541q23 123 85.5 227t153.5 181t202.5 120t232.5 43q137 0 250 -60.5t168 -189.5q12 -25 15 -48t9 -46h5l57 317h57l-57 -315h4q16 29 28.5 50.5t28.5 43.5q68 82 135.5 130t131 75t122 35t105.5 8q133 0 229.5 -48t153.5 -128t77.5 -183.5t2.5 -215.5h-1061 q-16 -158 24.5 -257.5t108.5 -155.5t144.5 -76.5t134.5 -20.5q84 0 158.5 25.5t139 66.5t118 92t89.5 102h68q-37 -59 -95.5 -119.5t-133 -109.5t-162.5 -80t-184 -31q-143 -2 -251 58.5t-163 177.5q-14 29 -20.5 57.5t-10.5 65.5h-4l-61 -332h-58l62 332h-4 q-16 -39 -34 -69t-42 -56q-63 -74 -135 -119t-139.5 -70.5t-125 -35t-92.5 -9.5q-123 0 -220 43t-159.5 120t-86 180.5t-1.5 226.5v-2zM242 543q-20 -111 1 -205t77.5 -164t143.5 -108.5t198 -38.5q102 0 202.5 41t182 111.5t140.5 165t77 198.5q18 102 -4.5 195t-78 165 t-139.5 114t-188 42q-111 0 -212 -39t-184 -108.5t-139.5 -164t-76.5 -204.5zM1329 590h995q4 117 -24.5 204t-83.5 146t-132 89t-173 30q-86 0 -187.5 -33t-207.5 -135q-88 -82 -124 -155.5t-63 -145.5z" />
<glyph unicode="&#xe7;" horiz-adv-x="1267" d="M182.5 324.5q-20.5 99.5 1.5 218.5q23 121 86.5 224t153.5 180t202.5 121t235.5 44q82 0 160 -23.5t142.5 -70.5t108.5 -118t58 -167h-63q-12 90 -56.5 152.5t-103.5 101.5t-126 55.5t-128 16.5q-115 -2 -205 -36t-188 -110q-78 -59 -138.5 -159.5t-80.5 -210.5 q-20 -115 2 -210t80.5 -163t144.5 -105.5t190 -37.5q92 0 175.5 26.5t153 70.5t121.5 100.5t85 117.5h63q-45 -84 -108.5 -150.5t-141 -114.5t-168.5 -75t-188 -29h-4l-57 -88l2 -2l12 4t17 2q72 0 101.5 -46t18.5 -99q-10 -55 -56 -105.5t-122 -50.5q-10 0 -31.5 3 t-43 15.5t-38 38t-16.5 70.5h55q2 -27 13.5 -41t26 -21t26.5 -8t18 -1q35 0 68 24.5t45 75.5q6 41 -17.5 66.5t-60.5 25.5q-53 0 -92 -51l-45 10l119 185q-106 8 -190.5 53t-140.5 118.5t-76.5 173z" />
<glyph unicode="&#xe8;" horiz-adv-x="1267" d="M164 541q23 123 86 227t154.5 181t205 120t234.5 43q109 0 202 -38t158.5 -108.5t95 -172t11.5 -226.5l-6 -30h-1082q-23 -133 9 -229.5t96.5 -159t148.5 -92t164 -29.5q152 0 289 73.5t227 212.5h64q-51 -86 -121 -150.5t-146.5 -106.5t-158.5 -62.5t-164 -20.5 q-125 0 -222.5 43t-159 120t-85 181.5t-0.5 225.5v-2zM233 590h1022q14 98 -14.5 185t-86.5 151.5t-142 100.5t-178 32q-100 0 -196.5 -35t-178.5 -97.5t-140.5 -148.5t-85.5 -188zM643 1522l37 47l432 -283l-35 -47z" />
<glyph unicode="&#xe9;" horiz-adv-x="1267" d="M164 541q23 123 86 227t154.5 181t205 120t234.5 43q109 0 202 -38t158.5 -108.5t95 -172t11.5 -226.5l-6 -30h-1082q-23 -133 9 -229.5t96.5 -159t148.5 -92t164 -29.5q152 0 289 73.5t227 212.5h64q-51 -86 -121 -150.5t-146.5 -106.5t-158.5 -62.5t-164 -20.5 q-125 0 -222.5 43t-159 120t-85 181.5t-0.5 225.5v-2zM233 590h1022q14 98 -14.5 185t-86.5 151.5t-142 100.5t-178 32q-100 0 -196.5 -35t-178.5 -97.5t-140.5 -148.5t-85.5 -188zM621 1286l538 283l21 -47l-541 -283z" />
<glyph unicode="&#xea;" horiz-adv-x="1267" d="M164 541q23 123 86 227t154.5 181t205 120t234.5 43q109 0 202 -38t158.5 -108.5t95 -172t11.5 -226.5l-6 -30h-1082q-23 -133 9 -229.5t96.5 -159t148.5 -92t164 -29.5q152 0 289 73.5t227 212.5h64q-51 -86 -121 -150.5t-146.5 -106.5t-158.5 -62.5t-164 -20.5 q-125 0 -222.5 43t-159 120t-85 181.5t-0.5 225.5v-2zM233 590h1022q14 98 -14.5 185t-86.5 151.5t-142 100.5t-178 32q-100 0 -196.5 -35t-178.5 -97.5t-140.5 -148.5t-85.5 -188zM475 1307l443 225l358 -225l-59 -31l-312 192l-385 -192z" />
<glyph unicode="&#xeb;" horiz-adv-x="1267" d="M164 541q23 123 86 227t154.5 181t205 120t234.5 43q109 0 202 -38t158.5 -108.5t95 -172t11.5 -226.5l-6 -30h-1082q-23 -133 9 -229.5t96.5 -159t148.5 -92t164 -29.5q152 0 289 73.5t227 212.5h64q-51 -86 -121 -150.5t-146.5 -106.5t-158.5 -62.5t-164 -20.5 q-125 0 -222.5 43t-159 120t-85 181.5t-0.5 225.5v-2zM233 590h1022q14 98 -14.5 185t-86.5 151.5t-142 100.5t-178 32q-100 0 -196.5 -35t-178.5 -97.5t-140.5 -148.5t-85.5 -188zM707 1266l43 237h59l-43 -237h-59zM952 1266l43 237h60l-43 -237h-60z" />
<glyph unicode="&#xec;" horiz-adv-x="376" d="M158 1522l37 47l432 -283l-35 -47zM160 0l200 1085h58l-201 -1085h-57z" />
<glyph unicode="&#xed;" horiz-adv-x="376" d="M160 0l200 1085h58l-201 -1085h-57zM227 1286l539 283l20 -47l-540 -283z" />
<glyph unicode="&#xee;" horiz-adv-x="376" d="M31 1307l442 225l358 -225l-59 -31l-311 192l-385 -192zM160 0l200 1085h58l-201 -1085h-57z" />
<glyph unicode="&#xef;" horiz-adv-x="376" d="M160 0l200 1085h58l-201 -1085h-57zM272 1266l43 237h60l-43 -237h-60zM518 1266l43 237h60l-43 -237h-60z" />
<glyph unicode="&#xf0;" horiz-adv-x="1312" d="M184 541q27 129 90.5 233.5t153.5 179t200.5 115.5t235.5 43q117 0 217.5 -48t155.5 -136l4 4q-57 123 -151.5 216t-215.5 165l-419 -158l-35 41l397 150q-70 37 -143.5 70.5t-171.5 68.5l76 31q94 -35 171.5 -71t141.5 -73l385 144l31 -43l-359 -134q135 -90 219 -183 t127 -192.5t49.5 -204t-14.5 -214.5q-25 -139 -94.5 -244.5t-164.5 -177.5t-204.5 -110t-214.5 -40q-109 0 -205 36t-162.5 107.5t-95 178t-4.5 246.5zM242 338q20 -94 76.5 -164t143.5 -108.5t197 -38.5q113 0 215.5 39.5t183.5 109.5t137 164t77 205q20 106 -4.5 200.5 t-82 164t-142.5 109.5t-187 40q-113 0 -215 -40t-184 -109.5t-138.5 -162.5t-76.5 -204t0 -205z" />
<glyph unicode="&#xf1;" horiz-adv-x="1312" d="M160 0l200 1085h58l-39 -208h4q37 59 92 104t119.5 74.5t134.5 44t135 12.5q209 0 320 -108q133 -133 78 -431l-107 -573h-57l106 573q27 141 8.5 234.5t-69.5 148.5q-53 57 -129 80t-160 23q-207 -4 -345 -117t-175 -317l-117 -625h-57zM543 1391q39 29 90 50t123 21 q33 0 67.5 -8t98.5 -41q25 -16 46 -26.5t39.5 -16.5t39 -9t47.5 -3q41 0 73.5 11t77.5 36l33 -43q-41 -25 -92 -45.5t-103 -20.5q-41 0 -84 9.5t-92 42.5q-31 18 -52 29.5t-38.5 17.5t-34 8t-37.5 2q-53 0 -98 -18.5t-72 -36.5z" />
<glyph unicode="&#xf2;" horiz-adv-x="1312" d="M184 543q23 121 85.5 225t153.5 181t203.5 120t235.5 43t219.5 -43t159 -120t86 -181t0.5 -225q-23 -123 -85 -226.5t-153.5 -180.5t-203 -120t-234.5 -43t-220 43t-159.5 120t-86.5 180.5t-1 226.5zM242 543q-20 -111 1 -205t77.5 -164t142.5 -108.5t196 -38.5 q111 0 211.5 38.5t183.5 108.5t139 164t77 205q20 111 -1.5 205t-77.5 163.5t-142 108.5t-197 39t-211 -39t-183 -108.5t-139.5 -163.5t-76.5 -205zM666 1522l36 47l433 -283l-35 -47z" />
<glyph unicode="&#xf3;" horiz-adv-x="1312" d="M184 543q23 121 85.5 225t153.5 181t203.5 120t235.5 43t219.5 -43t159 -120t86 -181t0.5 -225q-23 -123 -85 -226.5t-153.5 -180.5t-203 -120t-234.5 -43t-220 43t-159.5 120t-86.5 180.5t-1 226.5zM242 543q-20 -111 1 -205t77.5 -164t142.5 -108.5t196 -38.5 q111 0 211.5 38.5t183.5 108.5t139 164t77 205q20 111 -1.5 205t-77.5 163.5t-142 108.5t-197 39t-211 -39t-183 -108.5t-139.5 -163.5t-76.5 -205zM643 1286l539 283l20 -47l-540 -283z" />
<glyph unicode="&#xf4;" horiz-adv-x="1312" d="M184 543q23 121 85.5 225t153.5 181t203.5 120t235.5 43t219.5 -43t159 -120t86 -181t0.5 -225q-23 -123 -85 -226.5t-153.5 -180.5t-203 -120t-234.5 -43t-220 43t-159.5 120t-86.5 180.5t-1 226.5zM242 543q-20 -111 1 -205t77.5 -164t142.5 -108.5t196 -38.5 q111 0 211.5 38.5t183.5 108.5t139 164t77 205q20 111 -1.5 205t-77.5 163.5t-142 108.5t-197 39t-211 -39t-183 -108.5t-139.5 -163.5t-76.5 -205zM498 1307l442 225l358 -225l-59 -31l-311 192l-385 -192z" />
<glyph unicode="&#xf5;" horiz-adv-x="1312" d="M184 543q23 121 85.5 225t153.5 181t203.5 120t235.5 43t219.5 -43t159 -120t86 -181t0.5 -225q-23 -123 -85 -226.5t-153.5 -180.5t-203 -120t-234.5 -43t-220 43t-159.5 120t-86.5 180.5t-1 226.5zM242 543q-20 -111 1 -205t77.5 -164t142.5 -108.5t196 -38.5 q111 0 211.5 38.5t183.5 108.5t139 164t77 205q20 111 -1.5 205t-77.5 163.5t-142 108.5t-197 39t-211 -39t-183 -108.5t-139.5 -163.5t-76.5 -205zM543 1391q39 29 90 50t123 21q33 0 67.5 -8t98.5 -41q25 -16 46 -26.5t39.5 -16.5t39 -9t47.5 -3q41 0 73.5 11t77.5 36 l33 -43q-41 -25 -92 -45.5t-103 -20.5q-41 0 -84 9.5t-92 42.5q-31 18 -52 29.5t-38.5 17.5t-34 8t-37.5 2q-53 0 -98 -18.5t-72 -36.5z" />
<glyph unicode="&#xf6;" horiz-adv-x="1312" d="M184 543q23 121 85.5 225t153.5 181t203.5 120t235.5 43t219.5 -43t159 -120t86 -181t0.5 -225q-23 -123 -85 -226.5t-153.5 -180.5t-203 -120t-234.5 -43t-220 43t-159.5 120t-86.5 180.5t-1 226.5zM242 543q-20 -111 1 -205t77.5 -164t142.5 -108.5t196 -38.5 q111 0 211.5 38.5t183.5 108.5t139 164t77 205q20 111 -1.5 205t-77.5 163.5t-142 108.5t-197 39t-211 -39t-183 -108.5t-139.5 -163.5t-76.5 -205zM739 1266l43 237h60l-43 -237h-60zM985 1266l43 237h59l-43 -237h-59z" />
<glyph unicode="&#xf7;" horiz-adv-x="1228" d="M193 483l10 58h1024l-10 -58h-1024zM584 0l30 166h62l-31 -166h-61zM743 858l31 166h62l-31 -166h-62z" />
<glyph unicode="&#xf8;" horiz-adv-x="1312" d="M162 -72l153 168q-84 76 -121 191t-10 256q23 121 85.5 225t153.5 181t203.5 120t235.5 43q90 0 164 -23.5t131 -66.5l160 176l37 -35l-154 -172q82 -80 118 -194.5t9 -253.5q-23 -123 -85 -226.5t-153.5 -180.5t-203 -120t-234.5 -43q-90 0 -164.5 23.5t-132.5 66.5 l-155 -169zM242 543q-23 -125 8 -229.5t104 -174.5l762 838q-106 82 -264 82q-111 0 -211 -39t-183 -108.5t-139.5 -163.5t-76.5 -205zM393 106q111 -80 266 -79q111 0 211.5 38.5t183.5 108.5t139.5 164t76.5 205q23 125 -7 228t-104 175z" />
<glyph unicode="&#xf9;" horiz-adv-x="1312" d="M254 512l106 573h58l-107 -573q-25 -141 -6 -234.5t70 -148.5q51 -57 127 -79.5t160 -22.5q207 2 345 116.5t177 325.5l114 616h58l-201 -1085h-57l41 219h-4q-37 -63 -91.5 -110.5t-119 -78t-135 -45t-136.5 -12.5q-209 0 -321 109q-133 133 -78 430zM666 1522l36 47 l433 -283l-35 -47z" />
<glyph unicode="&#xfa;" horiz-adv-x="1312" d="M254 512l106 573h58l-107 -573q-25 -141 -6 -234.5t70 -148.5q51 -57 127 -79.5t160 -22.5q207 2 345 116.5t177 325.5l114 616h58l-201 -1085h-57l41 219h-4q-37 -63 -91.5 -110.5t-119 -78t-135 -45t-136.5 -12.5q-209 0 -321 109q-133 133 -78 430zM653 1286l539 283 l20 -47l-540 -283z" />
<glyph unicode="&#xfb;" horiz-adv-x="1312" d="M254 512l106 573h58l-107 -573q-25 -141 -6 -234.5t70 -148.5q51 -57 127 -79.5t160 -22.5q207 2 345 116.5t177 325.5l114 616h58l-201 -1085h-57l41 219h-4q-37 -63 -91.5 -110.5t-119 -78t-135 -45t-136.5 -12.5q-209 0 -321 109q-133 133 -78 430zM498 1307l442 225 l358 -225l-59 -31l-311 192l-385 -192z" />
<glyph unicode="&#xfc;" horiz-adv-x="1312" d="M254 512l106 573h58l-107 -573q-25 -141 -6 -234.5t70 -148.5q51 -57 127 -79.5t160 -22.5q207 2 345 116.5t177 325.5l114 616h58l-201 -1085h-57l41 219h-4q-37 -63 -91.5 -110.5t-119 -78t-135 -45t-136.5 -12.5q-209 0 -321 109q-133 133 -78 430zM739 1266l43 237 h60l-43 -237h-60zM985 1266l43 237h59l-43 -237h-59z" />
<glyph unicode="&#xfd;" horiz-adv-x="985" d="M180 -436l273 438l-230 1083h64l215 -1005l614 1005h68l-938 -1521h-66zM489 1286l539 283l21 -47l-541 -283z" />
<glyph unicode="&#xfe;" horiz-adv-x="1394" d="M80 -436l360 1952h58l-133 -723h4q66 102 146.5 164.5t161.5 97.5t150.5 46t114.5 11q123 0 219 -43t158.5 -120t87.5 -181t2 -225q-23 -123 -86 -226.5t-154.5 -180.5t-203 -120t-234.5 -43q-88 0 -162.5 23.5t-134 65.5t-99.5 99.5t-61 125.5h-4l-133 -723h-57z M317 537q-18 -96 3.5 -187.5t78 -163t143.5 -115.5t199 -44q111 0 212.5 38.5t183.5 108.5t138 164t77 205q20 111 -1.5 205t-76.5 163.5t-142.5 108.5t-197.5 39q-100 0 -201.5 -37t-185.5 -105.5t-147 -164.5t-83 -215z" />
<glyph unicode="&#xff;" horiz-adv-x="985" d="M180 -436l273 438l-230 1083h64l215 -1005l614 1005h68l-938 -1521h-66zM575 1266l43 237h60l-43 -237h-60zM821 1266l43 237h60l-43 -237h-60z" />
<glyph unicode="&#x152;" horiz-adv-x="2412" d="M225 758q31 174 118 318.5t211 247.5t276.5 160.5t312.5 57.5q129 0 238.5 -37t192.5 -102.5t134 -156.5t64 -199h4l86 469h706l-10 -56h-645l-123 -669h645l-10 -56h-645l-127 -680h645l-10 -55h-707l86 469h-4q-49 -109 -134 -200t-191.5 -156.5t-228.5 -102.5 t-249 -37q-164 0 -296 57.5t-218 161t-119.5 248t-1.5 318.5zM286.5 464q30.5 -134 109.5 -231.5t200 -150.5t270 -53q172 0 315.5 63.5t253 164.5t182.5 227t101 253l8 45q18 119 -5 245t-95 227.5t-192.5 167t-296.5 65.5q-150 0 -290 -53.5t-256 -150.5t-195.5 -231 t-108.5 -294q-31 -160 -0.5 -294z" />
<glyph unicode="&#x153;" horiz-adv-x="2367" d="M184 541q23 123 85.5 227t153.5 181t203.5 120t235.5 43q129 0 231.5 -54t161.5 -149q35 -59 47.5 -106t20.5 -88l4 8q61 117 141 190.5t162 116.5t160 58.5t137 15.5q123 0 217 -46t154.5 -124t84 -180.5t3.5 -214.5h-1061q-18 -129 10.5 -225.5t88 -160t140.5 -95 t171 -31.5q68 0 141.5 17t140 54t124 91.5t97.5 127.5h64q-33 -53 -88 -123.5t-164 -134.5q-86 -47 -166 -66.5t-158 -19.5q-66 0 -142.5 20.5t-143 66.5t-115.5 121t-59 184h-4q-66 -113 -144 -188t-157.5 -120t-159.5 -64.5t-150 -19.5q-123 0 -220 43t-159.5 120 t-86 180.5t-1.5 226.5v-2zM242 543q-20 -111 1 -205t77.5 -164t142.5 -108.5t196 -38.5q111 0 212.5 44t182.5 115.5t136.5 164t73.5 188.5q16 92 -2.5 185t-70.5 168t-137 121t-202 46q-111 0 -211 -39t-183 -108.5t-139.5 -164t-76.5 -204.5zM1337 592h992q6 63 -9.5 142 t-64.5 149.5t-132 119t-208 48.5q-96 0 -187.5 -34t-168 -95.5t-134 -145.5t-88.5 -184z" />
<glyph unicode="&#x178;" horiz-adv-x="1134" d="M311 1516h68l299 -924l637 924h69l-690 -994l-96 -522h-61l96 522zM721 1645l43 237h59l-43 -237h-59zM967 1645l43 237h59l-43 -237h-59z" />
<glyph unicode="&#x2c6;" d="M410 1307l442 225l358 -225l-59 -31l-311 192l-385 -192z" />
<glyph unicode="&#x2dc;" d="M455 1391q39 29 90 50t123 21q33 0 67.5 -8t98.5 -41q25 -16 46 -26.5t39.5 -16.5t39 -9t47.5 -3q41 0 73.5 11t77.5 36l33 -43q-41 -25 -92 -45.5t-103 -20.5q-41 0 -84 9.5t-92 42.5q-31 18 -52.5 29.5t-38.5 17.5t-33.5 8t-37.5 2q-53 0 -98 -18.5t-72 -36.5z" />
<glyph unicode="&#x2000;" horiz-adv-x="974" />
<glyph unicode="&#x2001;" horiz-adv-x="1948" />
<glyph unicode="&#x2002;" horiz-adv-x="974" />
<glyph unicode="&#x2003;" horiz-adv-x="1948" />
<glyph unicode="&#x2004;" horiz-adv-x="649" />
<glyph unicode="&#x2005;" horiz-adv-x="487" />
<glyph unicode="&#x2006;" horiz-adv-x="324" />
<glyph unicode="&#x2007;" horiz-adv-x="324" />
<glyph unicode="&#x2008;" horiz-adv-x="243" />
<glyph unicode="&#x2009;" horiz-adv-x="389" />
<glyph unicode="&#x200a;" horiz-adv-x="108" />
<glyph unicode="&#x2010;" horiz-adv-x="544" d="M100 537l11 59h544l-10 -59h-545z" />
<glyph unicode="&#x2011;" horiz-adv-x="544" d="M100 537l11 59h544l-10 -59h-545z" />
<glyph unicode="&#x2012;" horiz-adv-x="544" d="M100 537l11 59h544l-10 -59h-545z" />
<glyph unicode="&#x2013;" horiz-adv-x="1024" d="M172 537l10 59h881l-10 -59h-881z" />
<glyph unicode="&#x2014;" horiz-adv-x="2048" d="M172 537l10 59h1905l-10 -59h-1905z" />
<glyph unicode="&#x2018;" horiz-adv-x="567" d="M465 1516h67l74 -316h-67z" />
<glyph unicode="&#x2019;" horiz-adv-x="567" d="M408 1200l188 316h68l-189 -316h-67z" />
<glyph unicode="&#x201a;" horiz-adv-x="567" d="M158 -147l188 315h68l-189 -315h-67z" />
<glyph unicode="&#x201c;" horiz-adv-x="757" d="M469 1516h68l73 -316h-67zM651 1516h68l74 -316h-68z" />
<glyph unicode="&#x201d;" horiz-adv-x="757" d="M412 1200l188 316h68l-189 -316h-67zM594 1200l188 316h68l-188 -316h-68z" />
<glyph unicode="&#x201e;" horiz-adv-x="757" d="M162 -147l188 315h68l-189 -315h-67zM344 -147l188 315h68l-188 -315h-68z" />
<glyph unicode="&#x2022;" horiz-adv-x="768" d="M215 772q12 63 46 120.5t84 101.5t113.5 70t131.5 26q63 0 114.5 -26t85 -69t48 -100t2.5 -123t-48 -124t-86.5 -101t-112 -67.5t-124.5 -24.5q-66 0 -118 25.5t-86 68.5t-48 100.5t-2 122.5z" />
<glyph unicode="&#x2026;" horiz-adv-x="2048" d="M311 0l31 168h61l-30 -168h-62zM993 0l31 168h61l-30 -168h-62zM1675 0l31 168h61l-30 -168h-62z" />
<glyph unicode="&#x202f;" horiz-adv-x="389" />
<glyph unicode="&#x2039;" horiz-adv-x="507" d="M213 563l301 398l31 -54l-260 -344l133 -338l-49 -53z" />
<glyph unicode="&#x203a;" horiz-adv-x="507" d="M172 225l260 338l-133 344l51 54l154 -398l-299 -391z" />
<glyph unicode="&#x205f;" horiz-adv-x="487" />
<glyph unicode="&#x20ac;" d="M115 618l32 56h138l41 219h-160l33 55h137l16 94q23 123 79 216.5t135 157t174.5 95t195.5 31.5q133 0 241.5 -58.5t172.5 -180.5l-45 -54q-45 106 -137.5 172t-243.5 66q-92 0 -176 -31t-151 -87t-115 -138t-66 -182l-19 -101h733l-32 -55h-711l-41 -219h623l-33 -56 h-600l-31 -163q-18 -102 2.5 -181t68.5 -133.5t119.5 -83t157.5 -28.5q78 0 147.5 21.5t130 60.5t106.5 92t77 119h62q-37 -86 -94.5 -151t-128 -109t-149.5 -66.5t-157 -22.5t-159.5 25t-144 82t-93.5 148t-6 227l30 163h-159z" />
<glyph unicode="&#x2122;" horiz-adv-x="2027" d="M291 1466l10 50h563l-8 -50h-256l-160 -860h-55l160 860h-254zM825 606l168 910h76l274 -824l580 824h74l-168 -910h-55l153 830h-4l-580 -830h-32l-273 828h-4l-153 -828h-56z" />
<glyph unicode="&#x25fc;" horiz-adv-x="1085" d="M0 0v1085h1085v-1085h-1085z" />
<glyph unicode="&#xfb01;" horiz-adv-x="804" d="M193 0l190 1032h-178l10 53h178l21 107q4 18 11 51t23.5 70t44 75.5t71.5 71.5t105.5 55.5t149.5 26.5l-10 -55q-31 -2 -80 -9.5t-100 -35t-95.5 -85t-62.5 -159.5l-20 -113h395l-201 -1085h-57l190 1032h-338l-190 -1032h-57zM834 1329l34 187h58l-35 -187h-57z" />
<glyph unicode="&#xfb02;" horiz-adv-x="804" d="M193 0l190 1032h-178l10 53h178l21 107q4 18 11 51t23.5 70t44 75.5t71.5 71.5t105.5 55.5t149.5 26.5l-10 -55q-31 -2 -80 -9.5t-100 -35t-95.5 -85t-62.5 -159.5l-20 -113h337l80 431h58l-281 -1516h-57l190 1032h-338l-190 -1032h-57z" />
</font>
</defs>
</svg>
